<?xml version="1.0" encoding="UTF-8"?>
<svg id="_레이어_1" data-name="레이어 1" xmlns="http://www.w3.org/2000/svg" viewBox="0 0 1031.28 1031.28">
  <defs>
    <style>
      .cls-1 {
        fill: none;
        stroke: lime;
        stroke-miterlimit: 10;
        stroke-width: .25px;
      }
    </style>
  </defs>
  <rect class="cls-1" x=".12" y=".12" width="1031.03" height="1031.03"/>
  <line class="cls-1" x1=".12" y1="937.43" x2="1031.16" y2="937.43"/>
  <line class="cls-1" x1=".12" y1="843.7" x2="1031.16" y2="843.7"/>
  <line class="cls-1" x1=".12" y1="749.97" x2="1031.16" y2="749.97"/>
  <line class="cls-1" x1=".12" y1="656.24" x2="1031.16" y2="656.24"/>
  <line class="cls-1" x1=".12" y1="562.51" x2="1031.16" y2="562.51"/>
  <line class="cls-1" x1=".12" y1="468.78" x2="1031.16" y2="468.78"/>
  <line class="cls-1" x1=".12" y1="375.05" x2="1031.16" y2="375.05"/>
  <line class="cls-1" x1=".12" y1="281.32" x2="1031.16" y2="281.32"/>
  <line class="cls-1" x1=".12" y1="187.59" x2="1031.16" y2="187.59"/>
  <line class="cls-1" x1=".12" y1="93.86" x2="1031.16" y2="93.86"/>
  <line class="cls-1" x1="937.43" y1=".12" x2="937.43" y2="1031.16"/>
  <line class="cls-1" x1="843.7" y1=".12" x2="843.7" y2="1031.16"/>
  <line class="cls-1" x1="749.97" y1=".12" x2="749.97" y2="1031.16"/>
  <line class="cls-1" x1="656.24" y1=".12" x2="656.24" y2="1031.16"/>
  <line class="cls-1" x1="562.51" y1=".12" x2="562.51" y2="1031.16"/>
  <line class="cls-1" x1="468.78" y1=".12" x2="468.78" y2="1031.16"/>
  <line class="cls-1" x1="375.05" y1=".12" x2="375.05" y2="1031.16"/>
  <line class="cls-1" x1="281.32" y1=".12" x2="281.32" y2="1031.16"/>
  <line class="cls-1" x1="187.59" y1=".12" x2="187.59" y2="1031.16"/>
  <line class="cls-1" x1="93.86" y1=".12" x2="93.86" y2="1031.16"/>
</svg>