<?xml version="1.0" encoding="UTF-8"?>
<svg id="_레이어_2" data-name="레이어 2" xmlns="http://www.w3.org/2000/svg" viewBox="0 0 223.89 113.49">
  <defs>
    <style>
      .cls-1 {
        fill: aqua;
      }
    </style>
  </defs>
  <g id="_레이어_1-2" data-name="레이어 1">
    <path class="cls-1" d="M10.07,76.08c-.55,.94-1.13,1.42-1.74,1.42-.33,0-.6-.18-.82-.54L.33,64.7c-.22-.36-.33-.82-.33-1.36,0-1.05,.27-2.03,.82-2.94L33.08,2.61c.4-.73,1.01-1.34,1.82-1.85,.82-.51,1.59-.76,2.31-.76h13.07c.98,0,1.47,.44,1.47,1.31,0,.4-.13,.84-.38,1.31l-3.05,5.23c-.25,.47-.38,.91-.38,1.31,0,.87,.51,1.31,1.53,1.31,1.31,0,1.96,.31,1.96,.93,0,.54-.47,.98-1.42,1.31-.76,.25-1.45,.38-2.07,.38-.73,0-1.49,.25-2.29,.76-.8,.51-1.42,1.13-1.85,1.85L10.07,76.08Z"/>
    <path class="cls-1" d="M87.38,15.68c1.02,0,1.52,.44,1.52,1.31,0,.4-.15,.84-.44,1.31l-2.99,5.23c-.4,.73-1.01,1.34-1.82,1.85-.82,.51-1.59,.76-2.31,.76h-13.07c-.98,0-1.47-.44-1.47-1.31,0-.4,.13-.83,.38-1.31l1.52-2.61c.25-.47,.38-.91,.38-1.31,0-.87-.51-1.31-1.52-1.31-.69,0-1.44,.25-2.26,.76-.82,.51-1.43,1.12-1.83,1.85l-12.12,20.89c-.4,.73-1.01,1.36-1.82,1.87-.82,.51-1.59,.77-2.31,.77h-13.04c-.98,0-1.47-.44-1.47-1.31,0-.4,.13-.84,.38-1.31l13.56-23.52c.44-.73,1.05-1.34,1.85-1.85,.8-.51,1.56-.76,2.29-.76h36.59Z"/>
    <path class="cls-1" d="M132.46,15.68c.98,0,1.47,.44,1.47,1.31,0,.4-.13,.84-.38,1.31l-13.61,23.52c-.4,.73-1.01,1.34-1.82,1.85-.82,.51-1.57,.76-2.26,.76h-36.59c-1.02,0-1.53-.44-1.53-1.31,0-.4,.13-.84,.38-1.31l6.04-10.46c.44-.73,1.05-1.34,1.85-1.85,.8-.51,1.56-.76,2.29-.76h18.3c.73,0,1.5-.25,2.3-.76,.8-.51,1.42-1.12,1.86-1.85l3.01-5.21c.23-.48,.34-.91,.34-1.32,0-.88-.49-1.32-1.47-1.32-.72,0-1.47,.26-2.27,.77-.79,.51-1.4,1.14-1.83,1.87l-1.52,2.62c-.4,.72-1.01,1.33-1.83,1.83s-1.57,.75-2.27,.75h-13.1c-1.02,0-1.53-.44-1.53-1.31,0-.4,.13-.83,.38-1.31l3.05-5.23c.4-.73,1.01-1.34,1.82-1.85,.82-.51,1.59-.76,2.31-.76h36.59Zm-26.26,18.29c.26-.47,.39-.91,.39-1.3,0-.87-.51-1.3-1.52-1.3-.73,0-1.49,.25-2.29,.76-.8,.51-1.4,1.13-1.8,1.85l-3.05,5.23c-.25,.47-.38,.91-.38,1.31,0,.87,.49,1.31,1.47,1.31,.73,0,1.5-.25,2.32-.76,.82-.51,1.43-1.12,1.83-1.85l3.04-5.24Z"/>
    <path class="cls-1" d="M177.66,15.68c1.02,0,1.52,.44,1.52,1.31,0,.4-.13,.84-.38,1.31l-13.61,23.52c-.4,.73-1.01,1.34-1.82,1.85-.82,.51-1.57,.76-2.26,.76h-13.07c-1.02,0-1.52-.44-1.52-1.31,0-.4,.13-.84,.38-1.31l12.09-20.91c.25-.47,.38-.91,.38-1.31,0-.87-.49-1.31-1.47-1.31-.73,0-1.5,.25-2.31,.76-.82,.51-1.42,1.13-1.82,1.85l-12.09,20.91c-.4,.72-1.01,1.34-1.83,1.85-.82,.51-1.57,.76-2.26,.76h-13.07c-1.02,0-1.52-.44-1.52-1.31,0-.4,.13-.84,.38-1.31l13.61-23.52c.4-.73,1.01-1.34,1.82-1.85,.82-.51,1.57-.76,2.26-.76h36.59Z"/>
    <path class="cls-1" d="M203.25,26.14c-.98,0-1.47-.44-1.47-1.31,0-.4,.13-.83,.38-1.31l1.52-2.61c.25-.47,.38-.91,.38-1.31,0-.87-.51-1.31-1.53-1.31-.69,0-1.44,.25-2.26,.76-.82,.51-1.43,1.12-1.83,1.85l-3.05,5.23c-.25,.47-.38,.91-.38,1.31,0,.87,.51,1.31,1.52,1.31h18.3c.98,0,1.47,.44,1.47,1.31,0,.4-.13,.84-.38,1.31l-6.04,10.46c-.4,.73-1.01,1.34-1.82,1.85-.82,.51-1.59,.76-2.31,.76h-36.59c-.98,0-1.47-.44-1.47-1.31,0-.4,.13-.84,.38-1.31l2.99-5.23c.44-.73,1.05-1.34,1.85-1.85,.8-.51,1.56-.76,2.29-.76h13.07c1.02,0,1.53,.44,1.53,1.31,0,.4-.15,.84-.44,1.31l-1.47,2.61c-.29,.47-.44,.91-.44,1.31,0,.87,.51,1.31,1.52,1.31,.72,0,1.48-.26,2.27-.77,.79-.51,1.41-1.13,1.84-1.86l3-5.22c.31-.47,.46-.9,.46-1.3,0-.87-.51-1.3-1.52-1.3h-18.3c-1.02,0-1.52-.44-1.52-1.31,0-.4,.14-.83,.44-1.31l5.99-10.45c.44-.73,1.05-1.34,1.85-1.85,.8-.51,1.56-.76,2.29-.76h36.59c1.02,0,1.52,.44,1.52,1.31,0,.4-.15,.84-.44,1.31l-2.99,5.23c-.4,.73-1.01,1.34-1.82,1.85-.82,.51-1.59,.76-2.31,.76h-13.07Z"/>
    <path class="cls-1" d="M58.81,65.68c1.02,0,1.52,.44,1.52,1.31,0,.4-.15,.84-.44,1.31l-13.56,23.52c-.44,.73-1.05,1.34-1.85,1.85-.8,.51-1.56,.76-2.29,.76h-13.07c-1.02,0-1.53-.44-1.53-1.31,0-.4,.14-.84,.44-1.31l12.03-20.91c.29-.47,.44-.91,.44-1.31,0-.87-.51-1.31-1.52-1.31-.73,0-1.49,.25-2.28,.76-.8,.51-1.41,1.13-1.85,1.85l-12.04,20.91c-.44,.72-1.05,1.34-1.85,1.85-.8,.51-1.56,.76-2.29,.76l-6.07-11c-1.02,0-.53-2.44-.53-3.31,0-.4,.15-.84,.44-1.31l17.27-30.78c.54-.94,1.12-1.42,1.74-1.42,.33,0,.58,.16,.76,.49l7.24,12.31c.22,.36,.33,.85,.33,1.47,0,.91-.22,1.74-.65,2.5-.22,.36-.33,.71-.33,1.03,0,.84,.54,1.25,1.63,1.25h18.3Z"/>
    <path class="cls-1" d="M72.35,100.7c-.22-.36-.33-.85-.33-1.47,0-.91,.22-1.74,.65-2.5,.18-.36,.27-.71,.27-1.03,0-.84-.53-1.25-1.58-1.25h-18.3c-1.02,0-1.53-.44-1.53-1.31,0-.4,.14-.84,.44-1.31l13.56-23.52c.44-.73,1.05-1.34,1.85-1.85,.8-.51,1.56-.76,2.29-.76h13.07c.98,0,1.47,.44,1.47,1.31,0,.4-.13,.84-.38,1.31l-12.09,20.91c-.25,.47-.38,.91-.38,1.31,0,.87,.51,1.31,1.53,1.31,.69,0,1.44-.25,2.26-.76,.82-.51,1.42-1.13,1.82-1.85l12.09-20.91c.44-.73,1.05-1.34,1.85-1.85,.8-.51,1.56-.76,2.29-.76h13.07c.98,0,1.47,.44,1.47,1.31,0,.4-.13,.84-.38,1.31l-25.27,43.78c-.55,.94-1.13,1.42-1.74,1.42-.33,0-.58-.16-.76-.49l-7.24-12.31Z"/>
    <path class="cls-1" d="M152.09,65.68c1.02,0,1.53,.44,1.53,1.31,0,.4-.13,.84-.38,1.31l-13.61,23.52c-.4,.73-1.01,1.34-1.82,1.85-.82,.51-1.59,.76-2.31,.76h-18.3c-.69,0-1.44,.25-2.26,.76-.82,.51-1.42,1.13-1.82,1.85l-8.66,15.03c-.54,.94-1.13,1.42-1.74,1.42-.33,0-.6-.18-.82-.54l-7.19-12.25c-.25-.4-.38-.91-.38-1.53,0-.91,.22-1.72,.65-2.45l16.44-28.42c.4-.73,1-1.34,1.8-1.85,.8-.51,1.56-.76,2.29-.76h36.59Zm-18.69,5.22c.26-.47,.39-.91,.39-1.31,0-.87-.49-1.3-1.47-1.3-.73,0-1.5,.25-2.32,.76-.82,.51-1.42,1.13-1.82,1.85l-10.55,18.3c-.3,.47-.44,.91-.44,1.3,0,.87,.51,1.3,1.52,1.3,.73,0,1.49-.25,2.29-.76s1.42-1.12,1.85-1.85l10.55-18.3Z"/>
    <path class="cls-1" d="M169.09,82.12c-.8,.51-1.42,1.12-1.85,1.84l-3,5.21c-.26,.48-.38,.92-.38,1.32,0,.88,.51,1.32,1.52,1.32,.73,0,1.49-.25,2.29-.76,.8-.51,1.42-1.12,1.85-1.85l1.52-2.61c.4-.73,1-1.34,1.8-1.85,.8-.51,1.56-.76,2.29-.76h13.07c1.02,0,1.53,.44,1.53,1.31,0,.4-.13,.84-.38,1.31l-3.05,5.23c-.4,.73-1.01,1.34-1.82,1.85-.82,.51-1.59,.76-2.31,.76h-36.59c-.98,0-1.47-.44-1.47-1.31,0-.4,.13-.84,.38-1.31l13.61-23.52c.4-.73,1-1.34,1.8-1.85,.8-.51,1.56-.76,2.29-.76h36.59c1.02,0,1.52,.44,1.52,1.31,0,.4-.13,.84-.38,1.31l-6.05,10.45c-.44,.73-1.05,1.34-1.85,1.85-.8,.51-1.56,.76-2.29,.76h-18.32c-.73,0-1.49,.25-2.29,.76Zm2.7-6c-.24,.47-.36,.91-.36,1.31,0,.87,.51,1.31,1.53,1.31,.69,0,1.44-.25,2.26-.76,.82-.51,1.42-1.12,1.82-1.85l3.05-5.23c.25-.47,.38-.91,.38-1.31,0-.87-.49-1.31-1.47-1.31-.73,0-1.5,.25-2.32,.76-.82,.51-1.43,1.12-1.83,1.84l-3.05,5.23Z"/>
  </g>
</svg>