<?xml version="1.0" encoding="UTF-8"?>
<svg id="_레이어_2" data-name="레이어 2" xmlns="http://www.w3.org/2000/svg" viewBox="0 0 209.33 109.06">
  <defs>
    <style>
      .cls-1 {
        fill: #231815;
      }
    </style>
  </defs>
  <g id="_레이어_1-2" data-name="레이어 1">
    <g>
      <path class="cls-1" d="M207.26,79.53s.07-.07,.1-.11c1.25-1.63,.93-4.36,.86-4.85-.29-2.37-7.07-58.18-8.12-62.78-1.06-4.66-5.39-6-7.49-6.05-3.16-.15-30.98-1.43-34.14-1.17-1.62,.14-2.77,.69-3.57,1.36-2.04-1.66-4.62-2.24-6.22-2.27-1.46-.06-35.75-1.44-41.33-1.44-3.62,0-5.71,2.05-6.69,4.32-5.11-4.1-12.1-6.54-19.92-6.54-14.6,0-20.82,8.17-21.35,8.9-5.44-3.79-13.07-7.33-22.07-6.68-1.14,.07-27.9,1.94-34.72,21.65C-1.47,35.68-.02,42.2,1.93,45.59c.59,1.02,1.31,1.92,2.13,2.66-.14,.25-.23,.53-.24,.83-.53,17.85,2.86,28.06,3,28.48,7.54,22.27,25.43,30.07,41.06,30.07,1.42,0,2.82-.06,4.19-.19,8.75-.79,15.38-5.45,19.98-11.34,6.09,7.13,12.76,10.72,19.9,10.72,1.85,0,3.74-.24,5.65-.73,3.82-.97,6.76-3.17,8.93-6.17,1.66,2.69,4.8,6.13,10.04,6.22,.07,0,.14,0,.21,0,4.31,0,7.16-2.43,8.88-5.79,5.46,6.08,14.28,8.68,21.75,8.68,1.09,0,2.14-.05,3.16-.16,4.45-.47,10.3-3.16,14.06-8.54,3.52,2.77,12.38,8.72,23.51,8.72,.39,0,.79,0,1.18-.02,14.26-.54,20.31-10.67,19.99-20.47-.1-3.04-.78-6.17-2.06-9.05ZM62.22,10.97c.05-.07,5.37-7.47,18.52-7.47s22.65,6.88,24.63,16.73c1.08,5.35,1.79,18.31-14.81,23.01-.02,0-1.27,.35-3.4,.56l-3.61,.12c-.12,0-.23,.02-.34,.05-1.1-.01-2.29-.08-3.58-.21-2.28-16.45-10.55-25.91-11.33-26.77-.37-.46-2.54-3.07-6.12-5.98,0-.01,.02-.02,.03-.04Zm-11.98,93.1c-14.88,.8-32.78-6-40.1-27.62-.03-.1-3.2-9.73-2.85-26.3,.24,.07,.48,.13,.71,.18,1.37,.27,6.07,.47,11.51,.6l.26,13.71c.02,.97,.82,1.71,1.78,1.72,.97-.02,1.73-.82,1.72-1.78l-.26-13.57c7.74,.16,15.82,.21,17.39,.22h.01c.86,0,1.59-.62,1.73-1.47,.14-.85-.36-1.68-1.18-1.95-.67-.22-16.51-5.64-18.44-22.11-.11-.93-.92-1.61-1.86-1.54-.93,.06-1.65,.85-1.63,1.78l.41,21.48c-5.39-.14-9.65-.31-10.75-.53-1.08-.22-2.63-1.13-3.73-3.05-1.58-2.76-2.7-8.28,.95-18.84C11.98,7.52,37.29,5.73,37.57,5.71c3.56-.25,6.91,.26,9.97,1.2,.34,5.7,1.78,30.84,2.53,55.95-12.21-.77-22.21-1.38-22.39-1.39-.96-.05-1.79,.68-1.85,1.64-.06,.96,.68,1.79,1.64,1.85,.18,.01,10.35,.63,22.7,1.41,.38,14,.51,27.69,.08,37.69ZM22.76,37.3c2.85,4.84,6.78,8.18,10.16,10.37-3.31-.04-6.74-.09-9.96-.16l-.19-10.22ZM51.12,8.27c8.78,3.91,14.41,10.84,14.49,10.94,.02,.03,.05,.06,.08,.09,.1,.11,10.02,11.11,10.95,30.01,.32,6.47,.54,11.39,.6,15.34-7.21-.5-15.74-1.06-23.68-1.56-.69-23.44-1.99-46.94-2.45-54.82Zm2.64,95.42c.4-9.95,.27-23.36-.09-37.08,7.94,.51,16.44,1.06,23.6,1.56-.06,6.38-.7,10.02-2.24,14.84-2.83,8.88-9.86,18.69-21.27,20.68Zm42.99-.98c-7.91,2-15.35-1.01-22.11-8.96-.17-.2-.38-.35-.6-.45,1.91-2.98,3.35-6.16,4.33-9.23,2.9-9.11,2.75-15.2,1.78-34.92-.03-.62-.07-1.23-.12-1.84,1.32,.12,2.56,.17,3.7,.17,1.43,0,2.7-.08,3.77-.18l18.66-.62s2.9,.07,3.33,2.19c.07,.35,.17,.78,.27,1.28,2.24,10.27,1.43,12.21,.96,12.56-2.64,.11-9.4-.46-13.87-.88-1.63-.31-3.14-.42-4.42-.42-.93,0-1.69,.74-1.74,1.66-.05,.93,.64,1.73,1.57,1.83,.19,.02,1.78,.19,3.99,.39,4.12,.76,10.24,3,11.21,9.64,1.7,11.65-.92,25.32-10.7,27.79Zm29.17-47.25c-.1-.96-.94-1.66-1.92-1.57-.96,.1-1.66,.95-1.57,1.92,1.97,19.77,2.05,32.26,1.82,36.1-.15,2.55-1.13,10.84-7.61,10.75-4.89-.09-7.29-4.54-8.04-6.28,2.85-6.18,3.42-14.3,2.3-21.96-.53-3.66-2.28-6.37-4.57-8.33,1.85,.11,3.46,.16,4.52,.11,1.09-.04,2.02-.52,2.68-1.39,2.16-2.79,1-9.14-.36-15.41-.1-.48-.2-.9-.26-1.23-.79-3.88-4.73-4.96-6.79-4.99l-7.12,.23c8.27-4.99,11.9-13.48,9.8-23.87-.79-3.9-2.65-7.39-5.31-10.32,.16-1.17,.86-3.5,3.86-3.5,5.51,0,40.83,1.42,41.22,1.43,.05,0,4.98,.15,5.8,4.33,0,.04,.02,.09,.03,.13,.01,.05,1.33,4.95,4.21,26.51,.02,.19,2.2,19.11,3.84,29.38,0,.03,.01,.07,.02,.1,.07,.36,.08,1-.12,1.24-.1,.12-.39,.2-.78,.2h-7.26l-.6-15.19c-.04-.97-.85-1.72-1.82-1.68-.97,.04-1.72,.85-1.68,1.82l.66,16.69s0,.02,0,.04c0,.12,0,.23,.02,.35l.12,3.07-23.67-1.04c-.3-5.03-.75-10.92-1.42-17.65Zm34.76-27.87l16.96,1.09-15.22,11.84c-.2-1.71-.33-2.78-.33-2.83-.52-3.88-.98-7.23-1.4-10.11Zm-10.47,77.82c-7.65,.8-18.03-1.66-23.13-8.88,.36-1.44,.58-2.93,.67-4.4,.14-2.29,.17-7.57-.22-15.5l23.62,1.03,.63,15.87c.04,.94,.81,1.68,1.75,1.68,.02,0,.05,0,.07,0,.97-.04,1.72-.85,1.68-1.82l-.81-20.46c3.32,.88,9.67,3.75,10.36,12.84,.99,13.09-8.44,19-14.61,19.65Zm38.99,.14c-10.92,.43-19.89-5.94-22.8-8.28,1.47-3.2,2.26-7.1,1.91-11.77-.5-6.6-3.49-10.57-6.72-12.94,1.9,0,2.95-.83,3.5-1.52,1.24-1.56,.9-3.64,.81-4.12-1-6.3-2.21-15.88-3-22.33l20.52-15.97c.57-.45,.81-1.2,.6-1.9-.21-.69-.83-1.19-1.56-1.23l-22.31-1.44c-1.48-9.74-2.22-12.79-2.36-13.3-.16-.77-.41-1.46-.71-2.09,.27-.25,.75-.52,1.67-.6,2.47-.21,25.16,.78,33.71,1.18,.36,.01,3.51,.23,4.22,3.33,.81,3.54,5.62,42.38,8.06,62.46,.01,.09,.02,.18,.03,.27-3.02-3.97-7.56-6.81-13.74-7.08-5.03-.22-8.86,1.67-10.79,5.35-2.15,4.07-1.5,9.59,.45,12.19,2.45,3.26,6.12,6.73,12.9,4.54,.92-.3,1.42-1.29,1.13-2.2-.3-.92-1.29-1.42-2.2-1.13-4.38,1.42-6.7-.21-9.02-3.31-1.11-1.47-1.71-5.5-.15-8.46,1.31-2.48,3.84-3.64,7.54-3.48,6.54,.29,10.42,3.86,12.59,7.99,0,0,0,.02,.01,.03,1.59,3.04,2.25,6.39,2.33,8.96,.25,7.47-3.95,16.37-16.62,16.85Z"/>
      <path class="cls-1" d="M123.66,41.85c-1.33,0-2.41,1.08-2.41,2.41s1.08,2.41,2.41,2.41,2.41-1.08,2.41-2.41-1.08-2.41-2.41-2.41Z"/>
      <path class="cls-1" d="M151.77,47.52c1.33,0,2.41-1.08,2.41-2.41s-1.08-2.41-2.41-2.41-2.41,1.08-2.41,2.41,1.08,2.41,2.41,2.41Z"/>
      <path class="cls-1" d="M168.68,16.29c-1.33,0-2.41,1.08-2.41,2.41s1.08,2.41,2.41,2.41,2.41-1.08,2.41-2.41-1.08-2.41-2.41-2.41Z"/>
    </g>
  </g>
</svg>