<?xml version="1.0" encoding="UTF-8"?>
<svg id="_레이어_2" data-name="레이어 2" xmlns="http://www.w3.org/2000/svg" viewBox="0 0 139.55 141.92">
  <defs>
    <style>
      .cls-1 {
        fill: #231815;
      }
    </style>
  </defs>
  <g id="_레이어_1-2" data-name="레이어 1">
    <g>
      <path class="cls-1" d="M66.77,33.98c-.97,.02-1.73,.82-1.71,1.79l1.39,66.78c.02,.95,.8,1.71,1.75,1.71,.01,0,.02,0,.04,0,.97-.02,1.73-.82,1.71-1.79l-1.39-66.78c-.02-.97-.79-1.75-1.79-1.71Z"/>
      <path class="cls-1" d="M122.43,61.54c-.73-.49-1.49-.88-2.26-1.21,.02-.11,.04-.23,.04-.34,.11-26.84,1.12-39.24,1.6-45.19,.1-1.21,.18-2.18,.22-2.96,.12-1.93-.36-3.47-1.42-4.59-1.44-1.53-3.35-1.53-3.59-1.57h-30.39c-.55,0-1.06,.1-1.54,.28l-.03-.77c-.08-1.92-1.49-3.54-3.37-3.86-14.92-2.54-27.08-.8-31.62,.06-.96,.18-1.76,.74-2.26,1.52-.51-.3-1.09-.46-1.7-.42L9.33,4.21c-1.32,.06-2.33,1.15-2.31,2.47l1.28,61.88c.03,1.23,.97,2.24,2.19,2.36l5.04,.46c-9.61,6.44-13.69,11.14-15.05,12.96-.46,.61-.6,1.42-.38,2.15,.22,.73,.75,1.29,1.46,1.55,6.1,2.19,21.04,27.96,33.15,52.53,.41,.82,1.25,1.35,2.17,1.35,.03,0,.05,0,.08,0,.95-.03,1.79-.62,2.16-1.5,2.52-6.1,7.13-17.85,11.41-28.86l15.13,27.53c.31,.57,.9,.92,1.56,.91,.65,0,1.24-.37,1.53-.95,2.79-5.43,5.45-11.14,7.92-16.81,6.8,14.68,21.22,17.27,30.51,17.27,.58,0,1.15-.01,1.69-.03,6.28-.21,25.41-.85,29.84-27.15,4.26-25.29-8.49-45.56-16.27-50.79ZM36.79,136.87c-7.66-15.39-23.61-45.78-32.69-51.45,1.99-2.33,6.55-6.84,15.92-12.79,.88-.56,1.3-1.61,1.06-2.62-.24-1-1.1-1.74-2.12-1.84l-7.17-.66L10.54,7.66l35.26-1.66,.61,19.71c-5.92-1.01-13.08,1.25-16.36,7.22-4.04,7.35-.21,15.59-.05,15.94,.41,.87,1.45,1.24,2.33,.83,.87-.41,1.25-1.45,.84-2.33-.03-.07-3.21-7-.05-12.76,3.22-5.86,11.17-6.63,15.46-4.61,5.83,2.76,11.72,12.85,10.87,22.92-1.03,12.17-4.6,15.31-7.6,16.69-3.76,1.73-13.29-.42-19.34-13.37-.39-.84-1.38-1.23-2.24-.88-.86,.35-1.3,1.31-1,2.19,.22,.64,5.6,15.69,27.03,29.36-2.48,6.44-14.14,36.7-19.52,49.95Zm30.34-2.37l-14.95-27.2c3.53-9.1,6.6-17.07,7.71-19.96,.41-1.07,0-2.3-.98-2.91-6.23-3.9-11.08-7.95-14.82-11.72,3.58,1.26,6.9,1.15,9.23,.08,5.74-2.63,8.7-8.67,9.62-19.57,.98-11.67-5.86-23.07-12.87-26.38-.03-.01-.06-.03-.08-.04l.74-21.98c3.39-.65,15.61-2.56,30.38-.05,.26,.04,.45,.27,.46,.55l2.01,50.71c.02,.49-.03,2.11-1.46,2.2-3.22,.22-8.3,.31-8.35,.31-.76,.01-1.43,.52-1.65,1.24-.22,.73,.06,1.52,.68,1.95,.13,.09,12.46,8.61,17.43,14.18-1.72,5.45-11,34.2-23.11,58.59Zm68.12-22.76c-3.96,23.49-20.34,24.03-26.51,24.24-8.7,.29-24.14-1.63-29.94-17.74l-.12-.7c9.04-21.54,15.11-41.25,15.19-41.51,.17-.56,.05-1.16-.31-1.61-3.15-3.88-10.01-9.2-14.5-12.51,1.14-.04,2.3-.1,3.31-.17,3.69-.25,4.84-3.66,4.72-5.85l-1.73-43.69s0,0,0,0c-.02-.65,.11-2.18,.7-2.79,.13-.13,.28-.22,.59-.22h30.36s.67,.03,1.09,.49c.44,.49,.49,1.33,.45,1.96-.05,.76-.12,1.71-.22,2.89-.48,5.86-1.45,17.9-1.6,43.58-4.49-.15-15.36,.66-21.3,11.15-.48,.84-.18,1.91,.66,2.39,.27,.15,.57,.23,.86,.23,.61,0,1.2-.32,1.52-.89,2.11-3.72,4.98-5.99,7.88-7.37,.02,0,.03,0,.05-.01,.08-.03,8.51-2.91,14.1,.85,6.9,4.64,18.72,23.87,14.77,47.3Z"/>
      <path class="cls-1" d="M114.98,113.67c1.81-7.63,1.89-15.72,1.73-20.36,.03-1.23-.05-2.55-.24-3.95-.13-.94-.99-1.61-1.94-1.5-.95,.11-1.63,.96-1.54,1.91,0,.04,.13,1.45,.21,3.7-.11,2.65-.85,4.71-2.22,6.16-2.65,2.81-6.95,2.51-6.99,2.51-1.22-.1-2.31-.18-3.34-.24,5.87-.5,7.03-4.6,7.03-11.52,0-3.26-1.54-4.61-2.84-5.17-4.12-1.79-10.56,2.47-12.43,4.22-4.1,3.83,1.85,11.06,2.54,11.87,.19,.23,.43,.38,.69,.49-5.05,.12-6.47,1.1-7.07,2.21-.55,1.02-.24,2.04,.2,2.6,.26,.33,.63,.56,1.05,.64,5.48,1.06,8.14,11.08,8.71,14.84,.09,.6,.48,1.11,1.03,1.35,.22,.1,.46,.14,.7,.14,.35,0,.7-.1,.99-.31,2.31-1.59,3.71-3.72,4.15-6.32,.09-.51,.13-1.02,.14-1.54,.22,.61,.78,1.18,2.18,1.1,4.29-.25,9.67,.35,10.89,4.62,.27,.93,1.24,1.47,2.17,1.2,.93-.27,1.47-1.24,1.2-2.17-.6-2.08-2.28-5.12-7-6.49Zm-20.18-21.69c2.11-1.97,6.82-4.36,8.65-3.56,.49,.21,.73,.87,.73,1.96,0,7.37-1.4,7.84-3.87,8.04-.96,.08-1.68,.92-1.61,1.88,.06,.78,.63,1.4,1.36,1.56-1.16-.06-2.19-.09-3.12-.09,.17-.07,.33-.16,.47-.28,.74-.63,.82-1.73,.2-2.47-1.87-2.2-3.95-5.98-2.81-7.04Zm7.15,24.38c-.12,.68-.33,1.3-.66,1.87-.98-3.82-3.11-9.92-7.24-12.88,1.04-.08,2.48-.12,4.47-.06-.05,.42,.05,.87,.32,1.24,.04,.05,3.86,5.35,3.1,9.82Zm9.64-3.54c-1.43-.1-3.46-.16-4.72,.19-.82,.23-1.21,.73-1.36,1.22-.28-3.66-2.11-7.07-3.15-8.73,.43,.03,.87,.07,1.33,.11,.23,.02,5.55,.43,9.36-3.12-.22,3.29-.66,6.88-1.47,10.33Z"/>
      <circle class="cls-1" cx="120.3" cy="107.84" r="2.13"/>
      <path class="cls-1" d="M125.77,112.1c1.18,0,2.13-.95,2.13-2.13s-.95-2.13-2.13-2.13-2.13,.95-2.13,2.13,.95,2.13,2.13,2.13Z"/>
    </g>
  </g>
</svg>