<?xml version="1.0" encoding="UTF-8"?>
<svg id="_레이어_2" data-name="레이어 2" xmlns="http://www.w3.org/2000/svg" viewBox="0 0 153.55 123.19">
  <defs>
    <style>
      .cls-1 {
        fill: #231815;
      }
    </style>
  </defs>
  <g id="_레이어_1-2" data-name="레이어 1">
    <path class="cls-1" d="M153.21,78.06c-5.5-7.57-23.17-19.58-32.63-25.71,.31,.06,.62,.12,.95,.18,6.59,1.32,17.57,.7,18.03,.68,.91-.05,1.62-.79,1.65-1.7,.56-21.37-4.03-28.93-4.23-29.24-.49-.78-1.5-1.04-2.31-.61-.11,.06-10.66,5.54-26.08,2.41-4.13-.84-7.12-2.72-8.9-5.58-3.34-5.38-1.47-12.62-1.46-12.69,.13-.5,.04-1.03-.26-1.46s-.76-.69-1.28-.74l-28.84-2.58c-.54-.05-1.07,.15-1.43,.55-.37,.39-.53,.94-.45,1.47,.65,4.15,.31,14.5,.1,19.32-.76-.29-1.53-.53-2.31-.74,0-12.41-2.25-19.79-2.35-20.11-.21-.67-.8-1.15-1.51-1.22-18.64-1.75-30.63,5.16-31.13,5.45-.8,.47-1.1,1.49-.66,2.32,4.94,9.46,3.47,16.84,0,19.69-3.15,2.59-7.57-2.55-7.61-2.6-.32-.38-.79-.61-1.29-.62-.51-.02-.98,.19-1.32,.55-6.24,6.65-15.85,10.97-15.95,11.02-.81,.36-1.22,1.27-.96,2.11,.6,1.97,5.35,16.88,12.74,22.58C8.6,62.96,.69,68.26,.07,80.51c-.86,16.98,6.55,29.61,21.98,37.5,.47,.26,9.5,5.19,22.44,5.19,3.45,0,7.19-.35,11.11-1.24,17.45-3.93,25.22-21.06,27.84-28.59,10.85,15.07,21.74,21.99,22.22,22.29,.28,.18,.6,.27,.93,.27,.17,0,.34-.02,.5-.07,.48-.14,.88-.49,1.09-.95,11.3-24.63,43.76-34.03,44.09-34.12,.55-.16,.99-.57,1.18-1.11s.1-1.14-.24-1.6Zm-47.3,33.51c-3.66-2.68-12.96-10.2-21.63-23.13-.02-.04-.05-.06-.08-.1-.04-.05-.07-.09-.11-.14-.04-.04-.09-.08-.13-.12-.04-.03-.08-.07-.12-.1-.05-.04-.11-.07-.17-.1-.04-.02-.08-.05-.13-.07-.07-.03-.13-.05-.2-.07-.03,0-.06-.02-.09-.03-.01,0-.02,0-.03,0-.07-.02-.15-.02-.23-.03-.04,0-.08-.01-.12-.01-.07,0-.14,0-.21,.01-.05,0-.09,0-.14,.01-.06,0-.11,.03-.17,.04-.05,.02-.11,.03-.16,.05-.04,.02-.09,.04-.13,.06-.06,.03-.12,.06-.18,.1-.01,0-.02,0-.03,.02-.03,.02-.05,.05-.08,.07-.05,.04-.11,.08-.16,.13-.04,.04-.07,.08-.11,.12-.04,.04-.08,.09-.11,.14-.04,.05-.06,.1-.09,.16-.02,.04-.05,.09-.07,.14-.03,.06-.05,.13-.07,.2-.01,.03-.03,.06-.03,.1-.06,.25-6.38,25.06-26.29,29.54-17.26,3.89-30.95-3.52-31.14-3.63-14.15-7.23-20.92-18.75-20.13-34.23,.73-14.3,12.83-17.36,14.84-17.77,1.34,.24,2.67,.43,3.95,.61,4.48,.62,8.62,1.2,12.54,4.1-.02,.01-.03,.03-.05,.04-8.13,5.65-18.19,3.84-18.33,3.81-.95-.18-1.87,.44-2.05,1.39s.44,1.87,1.39,2.05c.47,.09,11.58,2.14,20.96-4.35,.25-.18,.49-.38,.73-.57,2.13,2.28,4.21,5.46,6.24,9.94,.49,7.61,1.71,15.54,4.28,22.33,.26,.7,.93,1.13,1.64,1.13,.21,0,.41-.04,.62-.11,.9-.34,1.36-1.35,1.02-2.25-7.39-19.59-2.99-50.47-2.94-50.78,.14-.95-.51-1.83-1.46-1.98-.95-.15-1.84,.49-2,1.44-1.14,6.69-3.61,11.9-7.32,15.6-4.81-3.87-9.84-4.57-14.77-5.25-1.35-.19-2.75-.38-4.13-.64-6.09-1.15-11.7-14.29-13.9-20.81,2.81-1.4,9.22-4.88,14.37-9.84,2.72,2.48,7.28,4.9,11.19,1.67,5.3-4.37,5.9-13.24,1.65-22.42,3.5-1.63,13.11-5.34,26.37-4.36,.59,2.39,1.84,8.51,1.89,17.32-4.41-.41-9.3,.49-15.16,3.07-12.42,5.46-14.42,19.86-14.5,20.47-.12,.96,.55,1.83,1.51,1.96,.96,.13,1.84-.55,1.96-1.51,.02-.13,1.85-13.06,12.44-17.71,12.71-5.59,20.01-2.43,29.02,5.37,.11,.1,11.22,9.94,11.22,28.53,.03,2.33-.18,9.05-1.49,12.08-.38,.89,.03,1.92,.91,2.3,.23,.1,.46,.14,.69,.14,.68,0,1.32-.4,1.61-1.06,1.88-4.34,1.79-13.14,1.78-13.49,0-.56-.01-1.1-.03-1.64l11.06-6.42c.7-.41,1.03-1.24,.8-2.01s-.97-1.29-1.76-1.25l-11.27,.56c-3.04-13.14-10.81-20.04-11.22-20.39-2.83-2.45-5.55-4.49-8.33-6.02,.16-3.4,.58-13.45,.16-19.26l24.79,2.22c-.43,2.96-.71,8.62,2.24,13.4,2.3,3.73,6.07,6.14,11.19,7.18,13.2,2.68,22.99-.43,26.75-1.98,1.12,2.82,3.29,10.15,3.09,24.28-3.28,.12-10.8,.26-15.53-.68-6.5-1.3-8.68-.9-9.05-.81-.68,.17-1.2,.73-1.3,1.43-.11,.7,.21,1.39,.81,1.76,.29,.18,26.97,16.64,36.13,26.72-7.93,2.7-32.16,12.4-42.89,33.36Zm-62.4-39.5c-1.09-1.69-2.21-3.13-3.34-4.35,1.31-1.32,2.5-2.78,3.53-4.42-.13,2.69-.21,5.65-.19,8.77Zm46.22-18.22l3.58-.18-3.34,1.94c-.07-.6-.15-1.18-.23-1.76Z"/>
  </g>
</svg>