<?xml version="1.0" encoding="UTF-8"?>
<svg id="_레이어_2" data-name="레이어 2" xmlns="http://www.w3.org/2000/svg" viewBox="0 0 271.59 84.9">
  <defs>
    <style>
      .cls-1 {
        fill: #231815;
      }
    </style>
  </defs>
  <g id="_레이어_1-2" data-name="레이어 1">
    <g>
      <path class="cls-1" d="M84.28,33.23c-.64-.52-1.58-.43-2.11,.21l-.78,.95c-5.15-8.76-5.96-16.38-5.96-16.46-.08-.79-.77-1.4-1.56-1.35-.8,.03-1.43,.68-1.44,1.48-.15,12.59,3.11,19.28,4.6,21.67l-1.3,1.59c-.52,.64-.43,1.59,.21,2.11,.28,.23,.61,.34,.95,.34,.43,0,.87-.19,1.16-.55l6.43-7.88c.52-.64,.43-1.59-.21-2.11Zm-6.7,.49c.54,1.02,1.15,2.07,1.81,3.13l-.32,.39c-.44-.83-.97-1.98-1.49-3.52Z"/>
      <path class="cls-1" d="M159.87,14.02c-.67-.44-1.56-.27-2.03,.37-.47,.65-.35,1.55,.27,2.05,.36,.29,8.75,7.3,6.02,24.46-.28,1.03-1.79,7.08,.35,10.2,.74,1.09,1.85,1.74,3.2,1.87,.18,.02,.37,.03,.55,.03,1.69,0,3.28-.79,4.52-2.26,2.82-3.34,3.68-9.75,2.09-15.6-2.77-10.16-6.69-15.69-14.96-21.13Zm10.58,34.79c-.74,.88-1.58,1.27-2.48,1.18-.47-.05-.77-.22-1.02-.58-1.07-1.57-.51-5.61,.09-7.79,.01-.05,.03-.11,.04-.16,1.3-8.04,.31-14.11-1.3-18.47,2.81,3.37,4.63,7.36,6.16,12.94,1.49,5.46,.35,10.71-1.49,12.87Z"/>
      <path class="cls-1" d="M267.9,49.05c-9.61-6.46-26.03-34.02-31.42-43.08-.84-1.41-1.46-2.45-1.81-3-2.65-4.21-10.38-2.46-17.86-.77-2.42,.55-4.71,1.07-6.59,1.32-1.29,.17-2.34,.91-2.95,2.06-1.06,2.02-.64,5.63,.44,9.67-.87-3.04-1.49-5.68-1.96-7.7-.36-1.56-.65-2.8-.92-3.67-.34-1.09-1.11-1.93-2.23-2.41-4.72-2.05-15.32,2.95-15.77,3.17-1.59,.76-2.43,1.74-2.86,2.61-3.12-2.44-6.62-4.37-10.42-5.63-16.97-5.61-36.54,5.11-37.36,5.57-.55,.31-.88,.88-.89,1.51,0,.63,.33,1.21,.87,1.53,.27,.16,6.74,4.11,6.91,16.88,.06,4.69-.14,8.72-.36,11.6-.85-1.32-1.65-2.66-2.36-3.99-.29-.55-.86-.91-1.49-.93-.77-.02-4.93,.24-10.98,7.89-.5,.63-.5,1.53,0,2.17l3.22,4.09c-.28,.11-.54,.23-.79,.36-7.17-5.39-12.46-15.04-14.25-18.6,.49-.23,.98-.47,1.48-.74,1.36,3.28,4.26,9.15,7.68,9.54,.11,.01,.24,.02,.38,.02,.88,0,2.22-.34,3.35-2.06,2.08-3.14,4.72-5.47,6.85-7.34,2.6-2.29,4.65-4.09,4.75-6.47,.05-1.27-.49-2.5-1.6-3.66-3.73-3.88-5.12-6.45-6.35-8.71-.9-1.65-1.74-3.22-3.3-4.82-.44-.45-1.21-1-2.5-.99-3.46,.01-9.52,4.92-14.06,9.11V4.42c0-.48-.2-.94-.55-1.27-.35-.33-.81-.5-1.3-.47l-18.44,1.06c-.91,.05-1.63,.79-1.65,1.71-.1,4.39,.23,8.68,.69,12.37-.83-1.78-1.6-3.5-2.36-5.22-.77-1.75-1.57-3.55-2.42-5.35-1.03-2.18-2.57-3.65-4.48-4.25-2.27-.72-4.95-.2-7.99,1.53-4.97,2.84-12.34,4.95-13.91,5.39-4.42-.69-9.66,1.06-13.99,3.12,.85-1.06,1.13-2.08,.82-3.04-.38-1.17-1.51-1.74-2.37-1.88-.06,0-.12-.02-.17-.02-1.08-.06-3.48-1.22-5.8-2.33-6.3-3.04-14.92-7.19-21.19-2.79C9.62,8.61,.84,21.14,.05,32.32c-.27,3.84,.64,6.82,2.71,8.86,1.52,1.5,3.38,2.17,4.89,2.46-3.79,8.35-5.81,19.15-.59,30.8,3.09,6.9,7.62,10.46,13.1,10.46,2.04,0,4.21-.49,6.48-1.49,5.56-2.44,10.42-7.31,12.82-9.99,4.13-4.62,5.9-7.7,5.28-9.16-.36-.84-1.15-1.51-2.35-2.51-1.81-1.52-4.49-3.77-6.3-7.36,.11,.05,.22,.09,.33,.14,1.19,.48,2.21-.17,3.02-.69,1.11-.71,2.83-1.78,6.07-1.71,2.17,.05,5.11,5.36,7.27,9.24,2.58,4.65,4.81,8.67,7.69,9.32,4.03,.92,7.78-1.24,10.4-3.95,1.49,1.73,4,4.1,6.85,4.45,.24,.03,.48,.04,.71,.04,1.44,0,2.8-.55,3.96-1.6,.83-.76,1.65-1.44,2.44-2.1,2.59-2.16,5.06-4.24,5.24-7.16,.63,1.26,1.16,2.39,1.52,3.26,.87,2.13,2.09,3.5,3.63,4.09,.59,.23,1.18,.32,1.73,.32,1.41,0,2.62-.58,3.3-.91,.12-.06,.22-.1,.3-.14,.83-.35,3.42-2.73,7.7-7.09,3.56,6.88,13.66,24.27,24.63,24.27,1.16,0,2.34-.2,3.52-.62,6.42-2.32,11.58-4.85,15.47-7.57,3.72,.77,19.42,3.33,32.28-5.02,.04-.03,.08-.05,.12-.08,.27-.21,5.52-4.31,9.19-10.26,1.42,5.65,4.45,14.38,9.98,17.33,1.33,.71,2.71,1.06,4.15,1.06s2.95-.36,4.48-1.09c9.34-4.41,14.86-9.38,16.86-13.35,4.41,5.31,9.66,9.39,9.97,9.63,2.46,1.8,5.35,2.7,8.5,2.7,2.76,0,5.71-.69,8.75-2.08,8.12-3.72,14.89-11.65,15.41-18.04,.27-3.25-1-5.91-3.65-7.7Zm-58.99-29.89c1.24,3.63,2.79,7.31,4.13,10.26-1.72-3.59-3.07-7.07-4.13-10.26ZM61.25,67.26c-1.35-.31-3.69-4.52-5.4-7.6-2.99-5.38-6.08-10.95-10.25-11.04-4.36-.1-6.75,1.44-8.03,2.26-.1,.06-.21,.13-.31,.2-2.24-1-2.95-2.13-2.95-2.13,0,0,0,0,0,0-.4-.77-1.3-1.13-2.11-.85-.82,.28-1.31,1.11-1.16,1.96,1.38,7.88,6.41,12.11,9.12,14.38,.35,.3,.76,.64,1.05,.89-1.7,3.17-11.46,15.46-20.41,16.06-4.42,.3-7.87-2.44-10.53-8.37C-.21,49.65,21.58,29.75,21.81,29.55c.72-.64,.78-1.75,.14-2.47-.64-.72-1.75-.78-2.47-.14-.12,.1-5.73,5.23-10.18,13.39-1.02-.07-2.8-.38-4.08-1.64-1.31-1.29-1.87-3.34-1.67-6.11,.72-10.15,8.77-21.57,16.13-26.74,4.59-3.22,12.14,.42,17.65,3.08,2.31,1.11,4.24,2.04,5.82,2.46-3.25,3.26-13.06,14.39-15.28,32.05-.12,.96,.56,1.83,1.52,1.96,.07,0,.15,.01,.22,.01,.87,0,1.62-.65,1.73-1.53,1.27-10.07,5.25-17.93,8.77-23.16,4.81-3.4,17.45-10.57,22.77-6.01,.79,.68,.88,1.18,.87,1.5-.04,2.3-4.71,6.02-9.23,9.62-5.59,4.45-11.92,9.49-14.7,15.35-.39,.82-.09,1.8,.69,2.26,.78,.46,1.78,.25,2.31-.49,1.8-2.51,7.83-9.39,11.73-8.07,2.04,.69,2.49,2.43,3.24,6,.72,3.43,1.62,7.71,5.2,11.68l1.27,1.41c5.44,6.02,6.43,7.31,5.63,8.49-1.48,2.19-4.97,5.67-8.64,4.84Zm73.97,12.97c-9.17,3.32-20.15-14.41-24.45-23.12,.26-.64,.12-1.4-.4-1.91-.4-.39-.95-.54-1.46-.47-.37-.09-.77-.07-1.14,.11-.63,.29-1,.92-1.01,1.57-3.33,3.41-6.82,6.83-7.63,7.37-.11,.05-.24,.11-.39,.18-.66,.32-1.55,.75-2.26,.48-.59-.23-1.16-.97-1.65-2.15-1.95-4.76-8.34-15.97-9.72-18.39l2.67-3.14c.54-.63,.46-1.58-.17-2.11-.63-.54-1.58-.46-2.11,.17l-8.34,9.82c-.54,.63-.46,1.58,.17,2.11,.28,.24,.63,.36,.97,.36,.43,0,.85-.18,1.14-.53l1.59-1.87c1.28,2.27,3.66,6.57,5.14,9.71,1.05,2.24,.26,3.21-3.57,6.42-.78,.65-1.66,1.39-2.55,2.2-.6,.54-1.19,.75-1.88,.67-1.84-.22-3.92-2.37-5.07-3.81,1.87-3.32-.61-6.08-6.23-12.3l-1.26-1.4c-2.95-3.27-3.7-6.88-4.37-10.06-.75-3.55-1.52-7.23-5.54-8.59-.75-.25-1.5-.36-2.27-.35,1.1-.9,2.21-1.78,3.29-2.64,5.86-4.66,10.48-8.34,10.55-12.29,.03-1.56-.66-2.96-2.03-4.16,3.14-1.02,7.4-2.6,10.79-4.53,2.12-1.21,3.92-1.64,5.2-1.23,.96,.3,1.75,1.11,2.36,2.41,.83,1.76,1.58,3.47,2.38,5.28,3.76,8.51,7.65,17.31,18.9,30.75,.35,.41,.84,.63,1.34,.63,.4,0,.79-.13,1.12-.41,.74-.62,.84-1.72,.22-2.47-4.66-5.57-8.01-10.32-10.62-14.58-.4-1.61-2.6-10.87-2.62-20.8l14.96-.86v10.67c-.91,.9-1.61,1.63-2.02,2.05-.67,.7-.64,1.81,.05,2.47,.7,.67,1.81,.64,2.47-.05,.52-.55,1.05-1.09,1.58-1.62,.68-.14,1.22-.67,1.37-1.35,6.31-6.14,12.49-10.76,14.15-10.48,1.18,1.23,1.84,2.45,2.67,3.98,1.27,2.34,2.84,5.25,6.9,9.47,.29,.31,.64,.74,.63,1.09-.04,.89-1.83,2.47-3.56,3.99-2.28,2.01-5.13,4.51-7.46,8.04-.26,.39-.42,.48-.42,.49-.95-.07-3.28-3.48-5.06-7.92,1.17-.81,2.32-1.74,3.44-2.82,.59-.58,.61-1.53,.03-2.12-.58-.59-1.53-.61-2.12-.03-1.3,1.26-2.68,2.31-4.07,3.18-.1,.05-.19,.1-.27,.16-5.74,3.51-11.4,3.98-11.5,3.99-.83,.06-1.45,.77-1.39,1.6,.05,.79,.71,1.4,1.49,1.4,.04,0,.07,0,.1,0,.22-.02,3.15-.25,6.99-1.62,1.73,3.5,6.98,13.27,14.49,19.28-1.86,1.81-2.51,3.78-2.52,3.82-.25,.79,.19,1.63,.98,1.88,.15,.05,.3,.07,.45,.07,.64,0,1.23-.41,1.43-1.05,.09-.27,2.21-6.69,11.71-4.13,.8,.22,1.62-.26,1.84-1.06,.22-.8-.26-1.62-1.06-1.84-2.22-.6-4.14-.78-5.8-.68-.06-.18-.15-.35-.27-.51l-3.02-3.84c3.01-3.55,5.26-4.81,6.4-5.26,1.37,2.43,2.97,4.8,4.64,7.1,.02,.03,.04,.05,.06,.08,1.96,2.69,4.02,5.28,5.95,7.7,4.14,5.19,8.83,11.06,7.99,13.22-1.43,3.66-6.28,9.17-21.33,14.6Zm132.85-23.77c-.42,5.17-6.42,11.96-13.38,15.15-3.07,1.41-8.93,3.24-13.69-.23-.08-.06-8.31-6.46-12.44-13.3-.39-.65-.84-1.37-1.36-2.18-1.8-2.84-4.21-6.68-6.08-11.28,1.24-.87,2.81-1.83,4.81-2.82,.87-.43,1.22-1.48,.8-2.34-.43-.87-1.48-1.22-2.34-.8-8.07,3.97-10.2,7.72-10.42,8.14-.44,.85-.12,1.88,.72,2.34,.26,.14,.54,.21,.82,.21,.62,0,1.22-.33,1.54-.9,0-.01,.34-.58,1.24-1.49,1.91,4.43,4.21,8.06,5.95,10.81,.9,1.43,1.68,2.66,2.04,3.45,.46,1.02-2.41,7.24-15.71,13.51-2.03,.96-3.82,.99-5.48,.1-5.56-2.97-8.54-15.31-9.22-19.81-.12-.79-.76-1.4-1.55-1.48-.8-.08-1.54,.39-1.82,1.13-2.63,7.12-9.64,12.83-10.31,13.36-9.44,6.09-20.94,5.67-26.67,4.95,2.03-1.95,3.47-3.97,4.29-6.09,1.57-4.04-2.66-9.34-8.52-16.68-1.78-2.23-3.68-4.61-5.48-7.07,.25-2.01,.88-8.05,.78-16.09-.13-9.98-3.82-15.42-6.35-17.98,5.54-2.57,19.92-8.21,32.22-4.14,14.93,4.94,25.1,22.18,22.67,38.43-.14,.96,.52,1.85,1.47,1.99,.09,.01,.18,.02,.26,.02,.85,0,1.6-.62,1.73-1.49,1.88-12.57-2.81-25.33-11.43-33.84-.1-.24-.24-.67-.12-1.07,.16-.54,.8-.94,1.31-1.18,4.61-2.2,10.88-3.98,12.86-3.11,.24,.1,.26,.19,.28,.25,.23,.74,.51,1.92,.85,3.41,1.34,5.78,3.83,16.47,10.1,27.49-1.24,1.36-1.87,2.49-1.93,2.6-.46,.85-.14,1.91,.71,2.37,.26,.14,.55,.21,.83,.21,.62,0,1.23-.33,1.54-.92,.02-.04,1.44-2.58,4.43-4.35,0,0,0,0,0,0,0,0,.01,0,.02-.01,1.25-.74,2.78-1.34,4.6-1.56,.96-.12,1.64-.99,1.53-1.95-.12-.96-.98-1.64-1.95-1.53-1.57,.19-2.96,.6-4.19,1.12-4.35-8.94-9.25-21.61-7.67-24.61,.08-.16,.14-.2,.32-.22,2.03-.28,4.39-.81,6.89-1.38,5.1-1.15,12.8-2.9,14.13-.78,.34,.54,.94,1.55,1.76,2.93,6.08,10.2,22.22,37.29,32.48,44.19,1.58,1.07,2.28,2.54,2.12,4.51Z"/>
    </g>
  </g>
</svg>