<?xml version="1.0" encoding="UTF-8"?>
<svg id="_레이어_2" data-name="레이어 2" xmlns="http://www.w3.org/2000/svg" viewBox="0 0 184.44 94.56">
  <defs>
    <style>
      .cls-1 {
        fill: #231815;
      }
    </style>
  </defs>
  <g id="_레이어_1-2" data-name="레이어 1">
    <g>
      <path class="cls-1" d="M172.63,12.04c-3.53-3.55-7.7-5.2-12.37-4.88-5.28,.35-9.24,2.26-11.78,5.66-.09,.13-.18,.25-.27,.38,.08-2.53,.24-4.22,.24-4.26,.05-.58-.2-1.14-.68-1.48s-1.09-.4-1.62-.16c-7.77,3.53-15.85,2.95-18.05,2.7-3.55-4.21-8.65-6.12-14.72-5.27-6.08,.85-9.89,4.54-12.02,7.48-2.34-7.43-7.65-11.7-14.98-11.7-.08,0-.17,0-.26,0-6.85,.09-10.98,4.19-13.03,7.06C70.01,2.5,65.32,.15,58.72,0c-9.54-.22-13.61,9.13-15.09,14.02-3.57-5.24-11.29-8.73-18.97-8.42-5.29,.21-14.99,2.44-20.59,15.02-8.52,19.12-1.82,55.03,3.4,59.12,.54,.42,1.13,.63,1.71,.63,.53,0,1.05-.18,1.51-.53,2.84-2.21,11.27-2.78,15.34-2.84,.31,5.61,1.9,9.96,4.78,12.94,2.97,3.07,7.23,4.63,12.67,4.63,.36,0,.72,0,1.09-.02,5.35-.2,9.71-3.02,13.06-7.41,1.19,1.44,3.12,3.06,5.82,3.06,.05,0,.11,0,.16,0,5.13-.12,10.28-5.98,15.7-17.83,3.3,13.94,8.83,19.16,12.47,21.1,.72,.38,1.49,.57,2.25,.57,1.44,0,2.86-.66,3.79-1.88,1.39-1.81,3.66-4.82,5.99-8.03,3.96,6.05,9.75,9.35,16.22,9.35,1.55,0,3.13-.19,4.74-.57,7.25-1.73,15.09-7.79,18.67-17.63,.27,2.34,1.33,4.87,3.69,7.36,4.35,4.57,13.39,7.77,20.79,7.77,1.66,0,3.25-.16,4.67-.51,4.31-1.04,5.84-3.38,6.37-5.16,.86-2.93,.15-5.94-2.06-8.72-3.67-4.6-10.93-7.79-16.91-7.41-5.14,.32-7.23,2.93-7.47,5.27-.29,2.79,1.82,5.45,5.01,6.33,.87,.24,1.76-.27,2-1.14,.24-.87-.27-1.76-1.14-2-1.85-.51-2.73-1.85-2.63-2.85,.13-1.29,1.83-2.19,4.43-2.35,4.85-.29,11.19,2.48,14.16,6.19,1.54,1.93,2.04,3.87,1.48,5.76-.51,1.74-2.46,2.55-4,2.92-6.7,1.61-17.77-1.52-22.34-6.34-5.86-6.17-1.06-11.69-.56-12.24,11.03-10.53,32.2,4.26,32.41,4.41,.48,.34,1.11,.4,1.64,.14,.53-.25,.89-.77,.93-1.35,2.05-27.94-2.17-50.11-11.3-59.3ZM25.14,13.29c-.21-.87-1.08-1.42-1.96-1.2-.87,.21-1.41,1.09-1.2,1.96,.05,.19,3.46,14.64,4.19,30.97-1.25,7.71-.38,15.39-.31,15.98,.1,.82,.79,1.44,1.62,1.44h.02c.19,0,.37-.04,.54-.1-1.02,2.88-1.69,6.07-1.93,9.39-.05,.69-.08,1.35-.1,2.01-3.28,.04-12.55,.42-16.8,3.17-1.4-1.67-4.06-9.28-5.36-21.09-1.49-13.61-.32-25.96,3.2-33.87,4.89-10.97,13.21-12.91,17.74-13.09,6.94-.27,14.09,3.1,16.67,7.84,3.61,6.64,2.33,10.47,1.57,11.87-2.13-.13-4.27,.1-6.37,.71-3.66,1.08-6.16,3.7-7.84,7-1.22-12.57-3.53-22.35-3.68-22.99Zm19.32,77.99c-5,.19-8.81-1.03-11.3-3.61-3.05-3.16-4.34-8.44-3.82-15.71,.55-7.64,3.55-14.47,7.66-17.41,1.27-.91,2.56-1.37,3.83-1.37,.46,0,.93,.06,1.39,.18,4.86,1.28,6.31,13.2,6.43,17.28,.03,.9,.73,1.61,1.68,1.58,.9-.03,1.61-.78,1.58-1.68-.05-1.86-.77-18.2-8.86-20.33-2.67-.7-5.42-.12-7.94,1.69-2.32,1.66-4.34,4.3-5.88,7.54,.38-4.78,.41-9.66,.21-14.37,.97-5.74,3.23-11.2,8.15-12.65,4.8-1.41,9.93-.38,14.46,2.91,6.26,4.54,10.15,12.4,10.41,21.03,.29,9.77-1.72,19.99-5.94,26.83-.13,.14-.22,.29-.29,.46-2.92,4.52-6.84,7.46-11.75,7.64Zm19.09-4.36s-.06,0-.09,0c-1.92,0-3.28-1.71-3.91-2.68,4.37-7.45,6.45-17.94,6.15-27.99-.29-9.63-4.68-18.44-11.75-23.57-2.41-1.75-4.98-2.95-7.6-3.59,.84-2.14,1.41-5.76-.6-10.86,.18-.21,.31-.47,.36-.76,.03-.14,2.62-14.2,12.3-14.2,.07,0,.15,0,.22,0,9.3,.2,15.57,5.11,15.96,28.36,0,.06,.01,.12,.02,.18-5.89,.22-10.61,5.07-10.61,11.01s4.95,11.03,11.03,11.03c.6,0,1.19-.06,1.77-.16,.28,4.92,.75,9.26,1.38,13.07-7.19,17.37-12.26,20.09-14.65,20.16Zm11.49-36.33c-4.29,0-7.77-3.49-7.77-7.77s3.49-7.77,7.77-7.77,7.77,3.49,7.77,7.77-3.49,7.77-7.77,7.77Zm20.2,39.56c-.46,.6-1.26,.77-1.92,.42-3.53-1.88-11.86-9.36-13.3-37.93,3.59-1.82,6.06-5.54,6.06-9.83,0-5.14-3.54-9.46-8.31-10.68,.06-.18,.1-.37,.1-.57-.15-8.85-1.13-15.62-3.09-20.58,.98-1.8,4.49-7.14,11.39-7.23,10.77-.13,12.78,10.48,13.15,15.05,.16,2.02,.07,4.91-.04,8.25-.38,11.54-.94,28.99,8.73,37.21,.29,.27,2.78,2.76,.16,7.53-2.6,4.72-9.9,14.4-12.92,18.35Zm46.91-25.12c-.57,13.5-9.55,22.64-18.13,24.69-7.4,1.77-14-1.33-18.14-8.48,2.09-2.95,4.01-5.83,5.13-7.86,3.18-5.77,.83-10.07-.87-11.56-8.5-7.24-7.97-23.74-7.61-34.65,.11-3.44,.21-6.42,.03-8.62-.05-.58-.12-1.15-.19-1.7,.73-1.57,4.11-7.87,11.46-8.9,7.95-1.11,13.66,3.5,15.67,12.65,1.37,6.24,2.52,12.6,.28,15.8-.91,1.3-2.4,2.07-4.54,2.35-9.61,1.26-15.46,5.48-15.7,5.66-.72,.53-.88,1.55-.35,2.27,.32,.44,.81,.67,1.32,.67,.33,0,.67-.1,.96-.31,.05-.04,5.46-3.91,14.2-5.06,.32-.04,.63-.1,.93-.16,.93,.07,6.27,.65,10.39,5.09,3.77,4.06,5.51,10.16,5.17,18.11Zm38.71,3.3c-6.3-3.85-23.5-12.73-34.22-2.5-.48,.51-.98,1.15-1.44,1.91,.1-.84,.17-1.7,.2-2.57,.38-8.89-1.67-15.79-6.08-20.52-2.61-2.79-5.57-4.3-7.99-5.12,.41-.38,.79-.8,1.11-1.26,3.01-4.29,1.83-11.14,.24-18.38-.53-2.43-1.32-4.58-2.31-6.47,3.39,.13,8.9-.09,14.65-2.16-.19,3.55-.32,10.09,.68,15.93,.08,.5,.15,.81,.16,.87,.2,.87,1.05,1.42,1.92,1.24,.87-.18,1.43-1.03,1.26-1.91-.03-.18-.07-.36-.1-.53-.29-1.76-1.01-7.9,2.14-12.12,1.95-2.6,5.1-4.06,9.38-4.35,3.71-.25,7.01,1.08,9.85,3.93,8.18,8.24,12.07,28.31,10.55,54Z"/>
      <path class="cls-1" d="M161.12,28.07c-.05-.9-.81-1.59-1.71-1.54-.9,.05-1.59,.81-1.54,1.71,0,.11,.58,11.11,2.08,24.17,.09,.83,.8,1.44,1.62,1.44,.06,0,.12,0,.19-.01,.89-.1,1.54-.91,1.43-1.8-1.48-12.96-2.05-23.86-2.06-23.97Z"/>
      <path class="cls-1" d="M116.69,35.99c.21,0,.42-.04,.62-.12,.83-.34,1.23-1.3,.88-2.13-2.05-4.96-2.96-17.12-2.97-17.24-.06-.9-.86-1.57-1.74-1.51-.9,.07-1.57,.85-1.51,1.74,.04,.52,.95,12.8,3.21,18.25,.26,.63,.87,1.01,1.51,1.01Z"/>
    </g>
  </g>
</svg>