<?xml version="1.0" encoding="UTF-8"?>
<svg id="_레이어_2" data-name="레이어 2" xmlns="http://www.w3.org/2000/svg" viewBox="0 0 235.61 125.94">
  <defs>
    <style>
      .cls-1 {
        fill: #231815;
      }
    </style>
  </defs>
  <g id="_레이어_1-2" data-name="레이어 1">
    <g>
      <path class="cls-1" d="M232.63,78.12c-6.68-25.4-24.39-34.62-38.06-37.89-1.35-.32-2.68-.59-3.99-.82,.28-.25,.54-.54,.8-.86,2.13-2.68,2.74-6.87,1.62-11.19-2.15-8.3-9.91-15.75-21.28-20.44-16.88-6.97-27.61,2.71-31.61,7.46C135.85,7.01,126.89-.99,117.33,.1c-7.91,.9-11.07,4.68-12.33,7.46-1.32-.94-2.86-1.73-4.67-2.32-9.92-3.2-15.93,.23-19.08,3.33-.19-.37-.4-.73-.66-1.07-2.14-2.72-5.98-2.84-6.73-2.84L15.43,.75c-.91-.05-1.72,.6-1.85,1.5L.02,99.64c-.07,.5,.08,1.01,.41,1.39,.33,.38,.81,.6,1.32,.6H47.11c.27,4.64,1.89,16.7,11.63,17.4,.38,.03,.77,.04,1.17,.04,5.86,0,12.77-3.22,18.54-14.81,.99,2.53,2.83,5.33,6.3,7.21,2.78,1.51,6.67,2.58,10.76,2.58,2.63,0,5.35-.44,7.91-1.5,1.41-.58,2.71-1.33,3.9-2.23,2.94,2.51,11.07,8.66,20.27,8.66,.28,0,.57,0,.85-.02,4.29-.18,8.21-1.72,11.69-4.58,2.53,3.63,8.38,9.76,19.03,9.76,2.19,0,4.59-.26,7.2-.86,3.9-.89,7.65-2.78,11.02-5.45,5.88,3.91,14.46,8.11,24.22,8.11,.57,0,1.14-.01,1.72-.04,.6-.03,1.28-.05,2.03-.07,6.44-.18,18.42-.5,25.25-9.61,5.92-7.89,6.6-20.71,2.02-38.1ZM170.38,10.16c14.7,6.06,18.34,14.67,19.23,18.09,.85,3.26,.48,6.3-.97,8.13-1.42,1.78-3.75,1.54-7.75,.97-4.16-.59-9.28-1.32-14.25,1.63-10.02-5.31-20.34-5.62-25.63-5.32,1.68-3.57,2.23-7.79,1.63-12.59-.12-.98-.41-2.06-.84-3.2,2.15-3.05,11.71-14.68,28.59-7.71Zm-71.12-1.59c2.25,.73,3.98,1.84,5.29,3.19,.05,.06,.1,.12,.15,.17,2.78,2.99,3.52,7.07,3.1,10.61-.58,4.76-3.24,8.38-6.33,8.6-6.81,.49-10.6-2.74-11.7-3.86,.03-3.34,.04-6.85,.02-10.58,0-.47-.2-.93-.54-1.26-.34-.33-.81-.51-1.28-.48l-6.6,.27c.11-.58,.18-.94,.21-1.07,.05-.18,.08-.35,.11-.52,.64-1.2,5.31-9.01,17.58-5.06Zm-9.55,23.13c.77,.51,1.68,1.01,2.74,1.47l-2.77-.04c0-.48,.02-.94,.03-1.43Zm-30.73,83.85c-8.52-.61-8.43-15.48-8.42-15.63,0-.47-.18-.92-.5-1.25-.33-.33-.78-.52-1.25-.52H3.76L16.82,4.35l56.88,3.81s.1,0,.15,0c.77-.04,3.01,.25,4.01,1.52,.63,.81,.74,2.03,.32,3.65,0,.03-.02,.07-.02,.1-.1,.48-9.51,48.4-13.94,87.52l-8.76-1.32c-.95-.14-1.85,.51-1.99,1.47-.14,.96,.51,1.85,1.47,1.99l15.2,2.29c.09,.01,.18,.02,.26,.02,.85,0,1.6-.62,1.73-1.49,.14-.96-.51-1.85-1.47-1.99l-2.98-.45c3.6-31.88,10.55-69.7,13.01-82.71l5.61-.23c.13,41.1-3.12,57.43-3.17,57.65-4.55,26.17-13.12,40.16-24.13,39.36Zm43.1-6.22c-5.46,2.24-11.96,1.09-15.68-.92-5.06-2.74-5.55-8.18-5.59-9.58,2.2-5.71,4.16-12.92,5.74-21.99,.12-.57,2.41-12.01,3.06-40.21l17.19,.27c-.26,1.88-.58,5.03-.66,9.42-.04,.11-.09,.21-.12,.33-.07,.31-.15,.68,.1,1.5-.01,7.05,.61,16.88,2.87,29.49-2.83-.8-7.02-1.9-9-1.99-.88-.03-1.64,.57-1.8,1.43-.16,.86,.34,1.7,1.17,1.98,.66,.22,16,5.5,11.74,19.5-1.63,5.35-4.66,8.97-9.02,10.76Zm26.23,6.15c-7.97,.34-15.47-5.11-18.4-7.54,1.99-2.24,3.54-5.03,4.54-8.35,2.43-7.99-.38-13.96-4.48-18.02,.28,.08,.53,.16,.74,.22,.58,.18,1.22,.04,1.68-.37,.46-.41,.66-1.03,.55-1.63-1.93-10.01-2.81-18.37-3.14-25.03,2.12,3.19,5.37,7.73,10.34,14.26,7.38,9.69,16.19,20.57,20.5,25.32,6.93,7.64,.81,13.9,.1,14.59-.04,.04-.08,.08-.12,.13-.12,.14-.24,.25-.37,.39-.27,0-.54,.04-.79,.17-.63,.3-.99,.93-.98,1.58-3.04,2.68-6.45,4.14-10.18,4.3Zm-18.49-67.42c5.17-1.39,22.38-4.55,28.57-1.31,.99,.52,1.56,1.15,1.73,1.93,1.12,5.12,.29,10.68-.98,19.08-.69,4.59-1.53,10.14-2.2,16.85-10.13-12.28-24.63-31.38-27.12-36.55Zm55.76,71.83c-13.89,3.17-20.6-4.43-22.89-7.93,.17-.19,.35-.35,.52-.54,3.31-3.16,7.49-11.2,.03-19.42-.92-1.02-1.98-2.23-3.15-3.6,.7-8.18,1.7-14.79,2.5-20.1,1.28-8.47,2.2-14.6,.94-20.35-.4-1.83-1.59-3.27-3.52-4.28-7.14-3.73-23.79-.75-30.3,.85,.21-5.85,.84-8.87,.85-8.94,.11-.51-.01-1.05-.34-1.46-.33-.41-.82-.66-1.35-.66l-3.42-.05c3.01-1.88,5.23-5.69,5.8-10.41,.49-4.07-.35-9.03-3.51-12.83,.36-1.57,2.04-5.64,9.97-6.55,8.71-1,17.61,8.01,20.51,14.77,0,.02,.02,.04,.02,.06,.47,1.11,.79,2.17,.9,3.1,.68,5.44-.25,9.76-2.85,13.19-.43,.58-.47,1.36-.09,1.97s1.09,.93,1.8,.81c.86-.16,14.61-2.47,27.61,4.81,.16,.13,.33,.24,.53,.31,6.44,3.74,12.65,9.88,16.96,19.88,1.71,3.97,2.98,7.91,3.84,11.79l-9.93-1.01c-.55-.06-1.04,.34-1.1,.89-.06,.55,.34,1.04,.89,1.1l10.56,1.08c1.86,10.16,.74,19.77-3.39,27.91-2.03,4.01-4.74,7.46-7.85,10.14-.03,.02-.06,.05-.08,.07-3.17,2.71-6.75,4.61-10.47,5.46Zm62.21-5.75c-5.82,7.76-16.29,8.04-22.54,8.21-.78,.02-1.49,.04-2.11,.07-9.11,.45-17.3-3.29-23.04-6.97,2.75-2.71,5.14-5.96,7.01-9.64,4.35-8.57,5.63-18.57,3.88-29.12l7.89,.8s.07,0,.1,0c.51,0,.94-.38,.99-.9,.06-.55-.34-1.04-.89-1.1l-8.48-.86c-.9-4.45-2.31-8.99-4.27-13.54-3.8-8.81-9.04-14.84-14.68-18.96,4.94-.42,13.31-.6,22.2,1.54,18.48,4.44,30.38,16.34,35.38,35.35,4.29,16.31,3.8,28.12-1.44,35.11Z"/>
      <path class="cls-1" d="M18.58,21.96s.07,0,.1,0c11.53-1.2,13.92-11.13,13.94-11.23,.12-.54-.21-1.07-.75-1.2-.54-.12-1.07,.21-1.2,.75-.08,.35-2.13,8.64-12.2,9.69-.55,.06-.95,.55-.89,1.1,.05,.51,.49,.9,.99,.9Z"/>
      <path class="cls-1" d="M38.08,11.82c.28-.48,.11-1.09-.36-1.37-.48-.27-1.09-.11-1.37,.36-.05,.09-5.01,8.85,1.39,16.97,.2,.25,.49,.38,.79,.38,.22,0,.43-.07,.62-.21,.43-.34,.51-.97,.17-1.4-5.54-7.03-1.41-14.41-1.23-14.73Z"/>
      <path class="cls-1" d="M28.62,24.07c-5.71-1.37-11.17,2.11-11.4,2.26-.46,.3-.59,.92-.3,1.38,.3,.46,.92,.6,1.38,.3,.05-.03,4.99-3.17,9.85-1.99,2.6,.63,4.76,2.39,6.42,5.25,.19,.32,.52,.5,.87,.5,.17,0,.34-.04,.5-.13,.48-.28,.64-.89,.36-1.37-1.94-3.35-4.53-5.44-7.69-6.19Z"/>
      <path class="cls-1" d="M129.86,33.85h-16.24c-.55,0-1,.45-1,1s.45,1,1,1h16.24c.55,0,1-.45,1-1s-.45-1-1-1Z"/>
    </g>
  </g>
</svg>