<?xml version="1.0" encoding="UTF-8"?>
<svg id="_레이어_2" data-name="레이어 2" xmlns="http://www.w3.org/2000/svg" viewBox="0 0 220.01 106.09">
  <defs>
    <style>
      .cls-1 {
        fill: #231815;
      }
    </style>
  </defs>
  <g id="_레이어_1-2" data-name="레이어 1">
    <path class="cls-1" d="M215.8,23.04c-3.45-9.94-8.62-16.41-14.64-18.23-.45-.12-11.11-2.81-18.87,2.79-3.61,2.61-5.93,6.56-6.97,11.72-2.38-2.86-4.73-5.42-6.71-7.38-7.25-7.16-9.38-6.53-10.29-6.27-.98,.29-1.79,1.04-2.47,2.11-.49-1.21-1.32-1.75-2.02-2-3.04-1.05-7.48,2.76-9.81,5.06-1.75-2.17-4.77-4.37-9.93-6.02-14.08-4.51-27.03,3.11-32.64,7.21,.05-1.28-.31-2.85-1.71-4.44-6.78-7.69-24.09-2.4-30.04-.27-3.09-5.48-22.97-4.06-30.17-3.35-.66-1.67-1.13-2.77-1.2-2.93-.31-.72-1.07-1.14-1.84-1.03C23.86,1.74,6.72,12.23,5.99,12.68c-.45,.28-.75,.75-.82,1.27-.07,.53,.11,1.05,.48,1.44,1.27,1.3,2.81,3.61,4.17,5.85-1.92,.02-3.81,.99-5.63,2.89-3.42,3.55-4.02,8.94-1.32,12,.65,.75,2.48,2.37,5.67,2.05-5.44,7.74-12.45,22.63-5.87,42.66,5.36,16.33,15.79,25.25,29.1,25.25,1.96,0,3.98-.19,6.06-.59l.36-.07c2.14-.36,7.79-3.08,11.62-9.23,.23-.38,.45-.77,.66-1.15,4.41,1.83,9.01,2.63,13.36,2.63,6.37,0,12.19-1.69,16.09-4.28,1.84-1.22,4.31-3.66,6.65-7.08,4.84,2.12,11.21,4.16,17.82,4.16,2.22,0,4.47-.23,6.69-.76,2.11-.51,4.1-1.27,5.96-2.28,3.1,2.04,9.04,5.44,18.63,5.44,1.08,0,2.21-.04,3.38-.14,3.15-.25,6.31-1.26,9.27-2.87,5.06,3.35,10.27,5.11,15.05,5.11,2.18,0,4.27-.36,6.21-1.09,2.84-1.07,6.3-3.31,9.03-7.9,2.78,2,8.65,5.52,15.53,5.52,.76,0,1.54-.04,2.32-.14,6.05-.72,11.33-4.26,15.69-10.52,9.9-14.2,9.62-40.55,3.63-57.83Zm-41.53,30.51c2.54,.73,5.47,.88,8.21-.22,1.96-.79,4.49-2.55,5.94-6.45,2.72,1.14,14.16,6.92,11.15,22.2-1.38,6.99-4.5,11.04-8.79,11.41-3.66,.32-7.22-2.12-8.47-4.72,1.44-9.02-2.98-16.67-8.03-22.23Zm14.71-10.4c-.42-4.61-4.18-11.21-8.7-17.45l11.86-6.64c.41-.23,.78-.14,.97-.07,.18,.07,.52,.26,.66,.7,1.37,4.26,4,12.3,6.19,18.34,.28,.77,.2,1.61-.21,2.31-.41,.7-1.1,1.18-1.9,1.31l-8.87,1.49ZM133.03,8.17c6.75,2.16,10.32,5.64,9.77,9.54-.44,3.17-3.6,5.84-7.04,5.95-3.13,.1-5.97-.03-8.73-.15-1.83-.08-3.57-.16-5.23-.16-1.31,0-2.57,.05-3.79,.19,.49-1.26,.55-2.68,.17-4.19-.5-2.01-1.68-3.57-3.5-4.66-2.37-1.41-5.52-1.74-8.37-1.66,5.98-3.71,16.16-8.23,26.7-4.85Zm2.94,23.67c-.18,.29-.25,.61-.25,.93-7.3-1.38-13.15-.74-13.28-.72-.07,0-.13,.03-.19,.04-2.27-1.84-4.75-3.34-7.34-4.41,.2,0,.39-.02,.59-.08,3.11-.97,6.94-.8,11.37-.59,.31,.01,.63,.03,.95,.04,.23,.46,.66,.82,1.21,.93,2.99,.61,6.54,2.06,7.06,3.27,.04,.09,.1,.23-.12,.6Zm-57.97,58.66c-5.61,3.71-16.41,5.32-26.03,1.39,2.97-7.62,2.76-17.24-.67-28.72-.23-.76-5.42-17.26-21.91-26.69,4.03-.4,9.79-.57,15.42,.66,.95,.21,1.88-.39,2.08-1.34,.21-.94-.39-1.88-1.34-2.08-10.91-2.38-21.88,.04-22.34,.14-.74,.17-1.29,.8-1.36,1.55s.36,1.47,1.07,1.77c19,7.96,24.97,26.81,25.03,26.99,3.76,12.57,3.38,23.01-1.1,30.19-3.5,5.61-8.4,7.49-9.22,7.63l-.44,.08c-14.49,2.73-25.56-5.19-31.19-22.32C-3.11,52.04,15.14,35.52,15.92,34.83c.71-.62,.8-1.68,.21-2.41-.59-.73-1.65-.87-2.4-.31-3.63,2.69-6.79,3.34-8.23,1.7-1.33-1.52-1.16-4.8,1.21-7.27,1.29-1.33,2.47-1.94,3.51-1.8,1.47,.2,2.66,1.85,2.99,2.46,.45,.85,1.51,1.18,2.36,.73,.85-.45,1.18-1.5,.74-2.36-.17-.32-3.64-6.95-6.73-10.97,4.47-2.58,16.57-9.19,26.06-10.92,1.55,3.8,6,15.34,5.27,21.36-.12,.96,.57,1.83,1.53,1.95,.96,.12,1.83-.57,1.95-1.53,.6-4.97-1.66-12.67-3.59-18.1,13.11-1.21,24.77-.5,25.86,1.66,.09,.17-.09,.76-.94,1.7-8.94,9.87-18.18,20.52-18.27,20.63-.52,.6-.57,1.48-.12,2.13,.45,.66,1.28,.93,2.03,.66,1.09-.39,26.85-9.23,36.9,12.58,6.72,14.58,3.65,27.1-.93,35.12-3.32-1.65-5.42-3.07-5.48-3.11-.8-.55-1.89-.34-2.43,.45-.55,.8-.35,1.89,.45,2.43,.24,.16,2.31,1.57,5.55,3.21-1.93,2.7-3.91,4.64-5.43,5.65Zm32.29-4.17c-7.66,1.84-15.88-.49-21.84-3.03,4.96-8.87,8.19-22.41,.99-38.02-8.37-18.15-26.52-17.48-35.7-15.79,3.52-4.02,9.11-10.35,14.58-16.39,.66-.73,1.11-1.41,1.4-2.03,6.51-2.52,22.26-6.97,27.41-1.14,.98,1.11,.92,1.94,.76,2.54-1.16,4.35-12.31,9.58-19.06,11.85-.83,.28-1.33,1.14-1.16,2,.17,.86,.97,1.48,1.83,1.41,.13,0,12.77-.79,19.68,1.47,.18,.06,.36,.09,.55,.09,.74,0,1.42-.47,1.66-1.21,.3-.92-.2-1.91-1.12-2.21-3.39-1.11-7.85-1.56-11.79-1.72,3.76-1.8,7.88-4.19,10.45-6.93,.37,.19,.81,.27,1.23,.16,2.38-.61,9.29-1.73,12.75,.33,1,.6,1.62,1.41,1.89,2.5,.38,1.51-.07,2.3-.43,2.76-1.62,2.06-6.27,2.69-8.66,2.8-.35,0-.64,0-.96,.02-.95,.04-1.69,.83-1.67,1.78s.78,1.71,1.73,1.72c.16,0,.52,0,1.04-.02,7.57,.06,15.61,4.92,20.25,12.33,3.37,5.38,7.77,16.71-.61,32.14-3.71,6.83-8.82,11.08-15.2,12.61Zm28.49,2.94c-9.11,.72-15.04-1.88-18.48-3.91,3.22-2.46,5.99-5.78,8.26-9.97,9.23-16.99,4.27-29.64,.5-35.66-.98-1.56-2.1-3.01-3.32-4.35,6.78-.08,23.75,1.25,31.38,15.92,5.83,11.2,2.45,20.54-.08,25.11-4.02,7.25-11.18,12.3-18.25,12.86Zm29.58,1.36c-4.79,1.81-10.8,.77-16.79-2.82,3.4-2.51,6.37-5.83,8.52-9.71,4.89-8.83,4.93-19.19,.13-28.43-5.01-9.63-13.52-14.11-21.2-16.16,.87-1.53,.63-2.84,.27-3.68-.48-1.1-1.47-2-2.65-2.74,4.82-.51,8.97-4.29,9.62-8.9,.11-.81,.18-2.35-.46-4.17,.02-.02,.04-.03,.06-.05,2.48-2.58,5.67-4.87,6.74-4.87h0c.04,.09,.1,.29,.14,.63,.26,2.55,.31,6.3,.27,9.85-.31,3.76-.33,7.47-.28,9.94,.02,.94,.78,1.7,1.72,1.72h.03c.93,0,1.7-.73,1.75-1.67,.01-.31,.21-4.48,.28-9.24,.51-6.29,1.63-10.75,2.71-11.27,2.19,.29,10.78,8.28,18.49,19.04,6.56,9.17,8.3,14.6,7.73,16.62-.76,2.72-2.2,4.52-4.27,5.35-3.03,1.22-6.62,.16-8.77-1.11-4.83-2.85-9.94-5.09-10.16-5.19-.85-.37-1.84-.01-2.26,.82-.42,.83-.11,1.84,.69,2.3,.22,.13,21.95,12.84,17.89,29.77-1.74,7.26-5.27,12.08-10.2,13.94Zm40.94-11.76c-3.76,5.4-8.21,8.44-13.21,9.05-7.03,.85-13.45-3.3-15.85-5.08,.35-.82,.67-1.72,.97-2.66,2.31,2.33,5.69,3.85,8.98,3.85,.3,0,.6-.01,.89-.04,3.47-.3,9.63-2.54,11.93-14.22,2.59-13.15-4.28-20.42-9.28-23.86l4.72-.79c1.83-.31,3.41-1.4,4.34-3,.93-1.6,1.11-3.52,.48-5.26-2.17-5.99-4.79-13.99-6.15-18.22-.43-1.32-1.42-2.38-2.71-2.88-1.3-.51-2.74-.41-3.96,.27l-12.09,6.77c.54-5.67,2.54-9.83,5.98-12.32,6.41-4.64,15.86-2.28,15.88-2.27,4.85,1.47,9.21,7.16,12.28,16.01,5.58,16.09,5.94,41.57-3.19,54.68Z"/>
  </g>
</svg>