<?xml version="1.0" encoding="UTF-8"?>
<svg id="_레이어_2" data-name="레이어 2" xmlns="http://www.w3.org/2000/svg" viewBox="0 0 222.32 105.87">
  <defs>
    <style>
      .cls-1 {
        fill: #231815;
      }
    </style>
  </defs>
  <g id="_레이어_1-2" data-name="레이어 1">
    <path class="cls-1" d="M218.38,58.97c-3.06-6.21-7.32-10.93-12.02-13.65,6.3-8.08,8.77-21.91,5.46-32.33-2.07-6.53-6.24-10.64-11.73-11.59-11.72-2.01-17.44,4.34-19.78,8.22-4.71-4.46-9.79-7.14-15.21-7.97-10.39-1.6-18.8,4.05-22.04,6.66-3.03-2.52-5.97-3.62-6.21-3.7-8.34-2.68-15.48-2.15-21.22,1.56-8.75,5.66-11.44,16.96-12.13,20.91-.28,.08-.56,.16-.83,.25-1.77,.59-3.4,1.4-4.88,2.4,2.93-5.78,3.66-11.8,1.97-16.99-1.76-5.4-5.91-9.39-11.99-11.53-10.54-3.71-17.93,1.99-21.1,5.25C62.97,2.25,57.95-.1,53.23,.25c-7.27,.54-10.97,4.41-12.64,6.95-.9-.52-1.54-.77-1.74-.85-1.38-.54-21.38-7.89-34.13,11.75-6.58,10.14-6.23,28.78,.87,46.39,7.38,18.29,19.96,30.72,34.53,34.1,6.3,1.46,11.77,2.08,16.51,2.08,11.07,0,18.19-3.36,22.7-7.17,7.57,6.27,18.57,8.69,19.06,8.8,.04,0,.07,.02,.11,.02,1.92,.3,3.74,.44,5.47,.44,8.55,0,14.81-3.49,19.38-8.44,8.51,7.48,18.4,11.54,27.44,11.54,3.6,0,7.06-.64,10.24-1.96,4.24-1.76,7.88-4.63,10.75-8.39,3.71,2.92,12.89,9.16,23.35,9.16,6.07,0,12.58-2.1,18.7-8.18,11.42-11.33,9.59-27.3,4.55-37.53ZM164.52,5.61c8.73,1.36,16.63,8.5,23.5,21.22,.36,.67,1.05,1.05,1.76,1.05,.32,0,.65-.08,.95-.24,.97-.52,1.33-1.74,.81-2.71-2.62-4.85-5.41-8.95-8.36-12.31,1.26-2.6,5.54-9.11,16.22-7.27,5.06,.87,7.47,5.3,8.6,8.86,3.01,9.47,.51,22.57-5.43,29.42-2.47-.83-5.01-1.13-7.52-.79-7.11,.96-11.65,3.37-14.52,6.48-.37-4.3-1.26-8.01-3.04-9.67-1-.93-2.28-1.31-3.61-1.07-1.66,.3-2.97,1.25-3.8,2.72-1.09,1.94-1.2,4.72-.88,7.54-3.78-3.39-8.48-5.2-13.74-5.16-6.32,.04-11.96,2.68-15.17,5.68,2.07-6.59,5.08-12.77,7.06-16.22,.04-.06,.07-.13,.1-.2,2.86-6.54,3.19-12.45,.99-17.56-.69-1.61-1.59-3-2.57-4.21,2.98-2.3,10.16-6.88,18.63-5.57Zm11.2,52.65s-.01-.06-.02-.09c-1.76-4.61-3.59-12.29-2.11-14.92,.25-.44,.55-.66,1.1-.75,1.28,.5,2.13,5.92,2.06,13.77-.28,.99-.48,2-.62,3-.13-.34-.27-.68-.41-1.02ZM117.82,9.52c4.68-3.02,10.67-3.39,17.74-1.13,.07,.02,6.63,2.49,9.25,8.61,1.72,4.02,1.4,8.82-.95,14.25-.73,1.27-6.1,10.93-8.59,21.32-1.02-8.68-4.45-16.85-11.68-21.92-4.73-3.32-10.38-4.83-15.82-4.36,.95-4.25,3.58-12.58,10.07-16.77Zm25.62,58.72c-.31,3.69-1.16,4.28-1.15,4.28-.19,.02-.68-.26-.94-.5-2.78-2.74-3.6-6.96-3.28-11.69,1.41,3.55,4.09,6.59,5.37,7.91ZM86.46,4.98c4.86,1.71,8.15,4.82,9.51,8.99,1.67,5.11,.33,11.37-3.66,17.18-3.86,5.62-7.09,13.48-8.28,20.53-.3-.54-.61-1.07-.94-1.58-3.15-4.84-7.61-8.1-13.32-9.74,5.46-15.53,2.46-25.36-.69-30.63,2.11-2.38,8.25-7.96,17.38-4.75Zm6.4,59.61s-.35,.16-1.47-.09c-1.5-.33-2.5-1.24-3.14-2.86-1.4-3.53-.66-9.86,1.51-16.3,.03,4.17,1.07,8.42,1.96,12.07,.63,2.56,1.58,6.43,1.14,7.17Zm-51.85,30.11c-13.28-3.08-24.84-14.64-31.72-31.7C2.75,46.8,2.25,29.23,8.06,20.28,19.36,2.87,36.64,9.77,37.36,10.07c.03,.01,.08,.03,.11,.04,.12,.04,1.09,.41,2.42,1.41,.11,.11,.23,.21,.37,.29,2.76,2.21,6.78,7.01,8.28,16.79,.17,1.09,1.2,1.84,2.28,1.67,1.09-.17,1.84-1.19,1.67-2.28-1.51-9.85-5.44-15.4-8.71-18.41,1.1-1.76,3.86-4.91,9.73-5.35,3.83-.29,8.2,2.08,11.12,6.04,.09,.12,.18,.25,.27,.38,.02,.03,.04,.06,.06,.09,2.94,4.25,6.45,13.25,.84,28.78-.73-.11-1.47-.2-2.24-.26-.36-.02-8.84-.36-14.63,5.84-.65,.7-1.24,1.44-1.77,2.24-.67-2.64-1.82-5.34-3.78-6.69-1.4-.96-3.05-1.16-4.77-.58-1.12,.38-1.96,1.21-2.43,2.38-2.58,6.5,8.15,27.29,10.32,31.39,.5,.94,1.65,1.33,2.62,.87s1.4-1.59,.99-2.58c-1.12-2.68-1.96-7.29-2.05-7.83-.85-7.33,.42-12.87,3.75-16.46,4.49-4.83,11.42-4.6,11.47-4.61,7.39,.61,12.92,3.65,16.41,9.03,6.55,10.07,4.41,25.66,2.94,29.9-1.19,3.43-8.81,20.15-41.66,12.52Zm3.29-39.93c-.24,1.31-.39,2.69-.44,4.15-3.24-7.73-4.92-13.82-3.93-15.05,.24-.08,.43-.11,.59-.11,.27,0,.46,.09,.62,.2,1.82,1.24,2.84,6.63,2.98,10.06,.01,.27,.08,.53,.18,.76Zm54.87,43.61c-.78-.18-10.42-2.45-16.99-7.71,2.61-3.03,3.82-5.9,4.27-7.18,.93-2.68,2.06-8.99,1.68-16.02,.73,.43,1.53,.75,2.41,.94,.85,.18,3.44,.75,5.13-.99,2.09-2.15,1.19-5.84-.07-10.95-1.22-4.99-2.75-11.2-1.17-16.01,1.46-4.46,4.83-7.77,9.51-9.33,5.66-1.89,12.15-.84,17.34,2.8,10.85,7.61,11.64,24.35,9.02,36.38-1.48,6.8-4.02,14.08-8.36,19.56-.08,.06-.17,.13-.24,.21-.14,.14-.24,.3-.32,.47-4.9,5.83-11.98,9.42-22.22,7.83Zm60.33,1.83c-9.82,4.08-22.84,.54-33.61-8.99,4.55-6.32,7.02-14.05,8.33-20.06,.21-.95,.39-1.93,.56-2.91,.7,2.5,1.9,4.77,3.78,6.63,.25,.25,2.57,2.39,5.18,1.38,3.03-1.19,3.6-5.53,3.77-8.69,.03-.59-.2-1.17-.64-1.57-.08-.08-8-7.66-5.02-12.32,1.83-2.85,7.58-5.95,13.67-5.99,4.16-.01,9.93,1.33,14.28,7.92,5,7.58,6.33,18.72,3.37,28.38-2.38,7.79-7.24,13.55-13.67,16.22Zm51.52-6.55c-14.89,14.77-32.31,2.42-37.04-1.48,1.22-2.14,2.24-4.49,3.02-7.03,1.4-4.58,1.92-9.47,1.63-14.24,.7-.25,1.24-.89,1.33-1.67,.27-2.47,.74-7.36,.82-12.52,1.6-5.08,5.61-8.68,14.83-9.93,6.91-.93,14.62,4.67,19.19,13.94,4.45,9.04,6.13,23.08-3.78,32.92Z"/>
  </g>
</svg>