<?xml version="1.0" encoding="UTF-8"?>
<svg id="_레이어_2" data-name="레이어 2" xmlns="http://www.w3.org/2000/svg" viewBox="0 0 212.17 131.36">
  <defs>
    <style>
      .cls-1 {
        stroke-width: 2px;
      }

      .cls-1, .cls-2 {
        fill: none;
        stroke: #231815;
        stroke-linecap: round;
        stroke-linejoin: round;
      }

      .cls-2 {
        stroke-width: 3.5px;
      }

      .cls-3 {
        fill: #231815;
      }
    </style>
  </defs>
  <g id="_레이어_1-2" data-name="레이어 1">
    <path class="cls-2" d="M61.22,51.05c21.44-10.45,37.2,9.53,37.02,23.09-.18,13.56-9.71,37.39-49.48,33.54C4.61,103.41-16.49,29.97,21.45,17.51c37.94-12.46,38.49,27.31,38.49,27.31,0,0-9.35-33.54,22.36-41.42,31.71-7.88,40.88,24.92,42.8,38.12,0,0-27.59,.18-18.98,33.54,8.61,33.36,49.3,33.36,56.63,14.11,0,0,12.83,22.18,33.72,11.18,20.89-11,19.06-50.95-10.63-50.4,0,0,26.26-35.5-2.2-46.55-25.47-9.9-28.22,28.04-28.22,28.04,0,0,.18-32.26-21.63-27.67,0,0-12.28,3.12-14.11,17.04"/>
    <path class="cls-2" d="M86.16,99.37s5.66,16.19,13.36,14.73,7.7-6.5,12.83-6c5.13,.5,8.26,9.66,12.74,9.48s3.66-17.22,3.66-17.22"/>
    <line class="cls-2" x1="20.66" y1="33.09" x2="28.23" y2="87.09"/>
    <line class="cls-2" x1="77.59" y1="91.49" x2="80.28" y2="129.61"/>
    <line class="cls-1" x1="77.59" y1="12.8" x2="86.16" y2="31.87"/>
    <line class="cls-1" x1="93.48" y1="9.14" x2="98.12" y2="26.49"/>
    <path class="cls-2" d="M70.26,24.78s-4.4,30.3,27.86,24.44c0,0,24.09-5.43,14.42-31.4"/>
    <line class="cls-1" x1="140.76" y1="10.54" x2="131.96" y2="24.84"/>
    <line class="cls-1" x1="128.93" y1="12.8" x2="142.16" y2="21.73"/>
    <line class="cls-1" x1="142.16" y1="28.32" x2="133.98" y2="45.37"/>
    <line class="cls-1" x1="128.93" y1="31.87" x2="147.17" y2="43.35"/>
    <line class="cls-1" x1="171.92" y1="10.54" x2="185.29" y2="24.11"/>
    <line class="cls-1" x1="181.26" y1="10.54" x2="171.92" y2="24.11"/>
    <line class="cls-1" x1="162.94" y1="28.32" x2="177.23" y2="43.35"/>
    <line class="cls-1" x1="173.93" y1="26.49" x2="165.13" y2="43.35"/>
    <polyline class="cls-1" points="123.35 52.88 113.64 54.92 125.1 73.59"/>
    <line class="cls-1" x1="127.56" y1="64.79" x2="115.65" y2="71.76"/>
    <polyline class="cls-1" points="120.51 81.84 136.36 95.77 132.88 78.63"/>
    <line class="cls-1" x1="139.57" y1="77.35" x2="142.78" y2="93.02"/>
    <polyline class="cls-1" points="148.73 92.56 145.43 75.33 155.88 88.8 154.41 74.51"/>
    <line class="cls-1" x1="161.38" y1="50.77" x2="177.23" y2="60.12"/>
    <line class="cls-1" x1="166.69" y1="70.11" x2="169.53" y2="56.45"/>
    <path class="cls-1" d="M172.37,70.11l5.77-15.58,2.57,20.34s3.85-7.61,2.75-16.86-.46,10.26,3.21,11.09,5.59-8.16,5.59-8.16l-2.29,17.69"/>
    <path class="cls-1" d="M197.21,63.97s-5.86,14.39-1.1,16.59,8.16-7.06,6.96-12.28"/>
    <path class="cls-1" d="M152.49,48.3s2.57,11.64,2.11,19.98c0,0,8.19,3.85,8.34-6.32,0,0,.18-7.7-8.16-4.67"/>
    <path class="cls-1" d="M140.76,48.3s2.57,11.64,2.11,19.98c0,0,8.19,3.85,8.34-6.32,0,0,.18-7.7-8.16-4.67"/>
    <path class="cls-1" d="M129.49,62.5s4.86,2.11,7.51-1.01-1.1-7.28-3.76-6.57-5.96,15.55,3.12,14.54c0,0,3.39,0,3.21-5.13"/>
    <circle class="cls-3" cx="164.78" cy="81.64" r="2.28"/>
    <circle class="cls-3" cx="171.58" cy="84.63" r="2.28"/>
    <circle class="cls-3" cx="177.81" cy="88.79" r="2.28"/>
    <circle class="cls-3" cx="183.43" cy="92.56" r="2.28"/>
    <circle class="cls-3" cx="188.44" cy="97.38" r="2.28"/>
  </g>
</svg>