<?xml version="1.0" encoding="UTF-8"?>
<svg id="_레이어_2" data-name="레이어 2" xmlns="http://www.w3.org/2000/svg" viewBox="0 0 256.08 53.85">
  <defs>
    <style>
      .cls-1 {
        stroke-width: 2px;
      }

      .cls-1, .cls-2 {
        fill: none;
        stroke: #231815;
        stroke-linecap: round;
        stroke-linejoin: round;
      }

      .cls-2 {
        stroke-width: 3.5px;
      }

      .cls-3 {
        fill: #231815;
      }
    </style>
  </defs>
  <g id="_레이어_1-2" data-name="레이어 1">
    <polygon class="cls-2" points="1.75 11.41 24.17 6 27.9 22.62 37.56 8.45 45.68 19.4 51.61 1.75 70.93 4.97 60.37 50.32 43.1 50.96 37.82 42.07 30.99 51.74 18.37 51.74 1.75 11.41"/>
    <path class="cls-2" d="M70.93,11.54s11.34-5.02,18.81,2.83,7.22,23.68-3.55,30.51c-8.27,5.24-19.76,3.5-23.37-1.78"/>
    <path class="cls-2" d="M90.43,15.15s11.72-8.64,23.05-4.15c10.73,4.25,15.85,17.39,10.24,27.15s-22.36,16.88-35.29,5.06"/>
    <path class="cls-2" d="M174.74,11.77s15.07-10.44,27.64,1.23c7.95,7.38,7.22,23.68-3.55,30.51-8.27,5.24-19.76,3.5-23.37-1.78"/>
    <path class="cls-2" d="M202.87,11.77s15.07-10.44,27.64,1.23c7.95,7.38,7.22,23.68-3.55,30.51-8.27,5.24-19.76,3.5-23.37-1.78"/>
    <path class="cls-2" d="M116.67,11.67l1.03-5.8h22.55l1.17,10.31,8.11-.77,.52-9.53h22.67s5.41,19.94,1.03,42.18h-21.26l-.52-12.16-10.55,.13v12.03l-21.14,1.32-1.25-5.73"/>
    <path class="cls-2" d="M229.13,10.51l1.03-7.47h22.03V31.77l-15.72-.9s19.2-2.45,17.78,11.98-22.67,10.05-25.12,0"/>
    <polyline class="cls-1" points="13.67 15.73 23.52 44.71 36.34 25.4 49.22 42.59 57.53 11.67"/>
    <path class="cls-1" d="M68.16,30.7c0,3.9,2.66,6.85,5.99,7.34,5.22,.77,8.99-4.22,8.99-8.12s-2.73-7.05-6.1-7.05c-3.66,0-8.87,2.53-8.87,7.83Z"/>
    <path class="cls-1" d="M98.75,30.7c0,3.9,2.66,6.85,5.99,7.34,5.22,.77,8.99-4.22,8.99-8.12s-2.73-7.05-6.1-7.05c-3.66,0-8.87,2.53-8.87,7.83Z"/>
    <path class="cls-1" d="M181.4,29.54c0,3.49,2.56,5.41,5.89,5.9,5.22,.77,7.63-3.67,7.63-7.56s-2.28-6.5-5.65-6.5c-3.66,0-7.87,2.86-7.87,8.16Z"/>
    <path class="cls-1" d="M210.72,28.65c0,3.49,2.56,5.41,5.89,5.9,5.22,.77,7.63-3.67,7.63-7.56s-2.28-6.5-5.65-6.5c-3.66,0-7.87,2.86-7.87,8.16Z"/>
    <line class="cls-1" x1="132.9" y1="15.53" x2="131.45" y2="41.14"/>
    <line class="cls-1" x1="161.21" y1="14.38" x2="160.15" y2="40.46"/>
    <line class="cls-1" x1="130.29" y1="28.34" x2="160.68" y2="27.42"/>
    <path class="cls-1" d="M242.92,9.09s-2.71,10.69-2.06,15.72"/>
    <path class="cls-1" d="M244.98,42.52s-2.23,5.1-6.76,4.14c-6.51-1.37-6.18-5.82-6.18-5.82"/>
    <circle class="cls-3" cx="243.32" cy="38.56" r="1.48"/>
    <circle class="cls-3" cx="236.78" cy="37.27" r="1.48"/>
  </g>
</svg>