<?xml version="1.0" encoding="UTF-8"?>
<svg id="_레이어_2" data-name="레이어 2" xmlns="http://www.w3.org/2000/svg" viewBox="0 0 193 140.29">
  <defs>
    <style>
      .cls-1 {
        fill: none;
        stroke: #231815;
        stroke-linecap: round;
        stroke-linejoin: round;
        stroke-width: 3.5px;
      }
    </style>
  </defs>
  <g id="_레이어_1-2" data-name="레이어 1">
    <path class="cls-1" d="M41.98,70.03l-.65-57.84c0-7.46-3.84-8.28-3.84-8.28-9.95-1.71-24.48-.11-24.48-.11C3.53,5.54,6.11,63.49,6.11,63.49c.69,12.53,6.82,12.24,6.82,12.24l8.88,.53S1.68,82.45,1.75,88.98c.07,6.54,1.23,48.36,17.07,49.53s20.84-29.12,18.95-36.16"/>
    <path class="cls-1" d="M40.47,7.05s3.9-5.81,13.98-5.27,16.28,6.1,17.27,12.69c.98,6.59,.65,33.55,.54,54.57,0,0,.22,5.28-4.36,5.23s-10.84,0-10.84,0c0,0,27.72,2.83,27.29,25.27-.44,22.44-9.37,34.64-17.54,35.08-8.17,.44-19.61-4.25-21.13-32.03"/>
    <path class="cls-1" d="M22.96,38.8s-4.65,26.61,1.24,57.9c.16,.85,.69,1.59,1.43,2.04,2.98,1.79,11.73,5.68,28.99,3.2,0,0,3.81,.33,3.27-6.54s-2.29-60.13-2.29-60.13"/>
    <path class="cls-1" d="M68.81,8.1s11.73-11.17,23.61,0V74.5"/>
    <path class="cls-1" d="M80.61,121.45s4.4,11.98,15.94,11.98,27.34-12.6,27.78-76.24c0,0,.91-40.09-8.1-50.4-.6-.68-1.36-1.19-2.21-1.52-3.43-1.32-13.81-4.4-21.61,2.82"/>
    <path class="cls-1" d="M121.72,20.97s-1.41-14.88,9.04-16.62,17.97,3.7,17.97,3.7c0,0,8.93-7.63,18.52-2.18s17.07,28.14,11.26,72.87"/>
    <path class="cls-1" d="M114.57,119.25s9.04,16.41,25.59,15.4,20.04-19.16,20.62-27.59-.58-23.24-13.94-28.32"/>
    <path class="cls-1" d="M154.5,83.87s3.82-8.03,17.18-6.58c13.36,1.45,21.5,15.83,19.17,34.71s-7.12,25.56-14.81,25.56-15.63-5.47-20.02-13.12"/>
    <ellipse class="cls-1" cx="99.47" cy="100.17" rx="5.03" ry="10.89"/>
    <path class="cls-1" d="M137.74,69.02s15.79-22.3,10.34-53.01c0,0,15.25,33.11,15.69,48.58"/>
    <path class="cls-1" d="M140.02,49.99s11.92,3.09,20.89-.3"/>
  </g>
</svg>