<?xml version="1.0" encoding="UTF-8"?>
<svg id="_레이어_2" data-name="레이어 2" xmlns="http://www.w3.org/2000/svg" viewBox="0 0 218.43 138.03">
  <defs>
    <style>
      .cls-1 {
        stroke-width: 3.5px;
      }

      .cls-1, .cls-2 {
        fill: none;
        stroke: #231815;
        stroke-linecap: round;
        stroke-linejoin: round;
      }

      .cls-2 {
        stroke-width: 1.5px;
      }
    </style>
  </defs>
  <g id="_레이어_1-2" data-name="레이어 1">
    <path class="cls-1" d="M54.01,81.37c0-.37-5.4-18.89-27.73-12.27s-17.01,35.78-10.31,45.88c7.48,11.29,24.79,23.16,40,5.37"/>
    <path class="cls-1" d="M56.71,74.26s-5.4,12.51-8.22,27.85c0,0,19.38-16.56,36.93-20.61,0,0-34.84,9.32-32.02,30.55s24.66,20,36.81,8.1c12.15-11.9,17.68-46.69,5.21-67.05-10.49-17.13-22.54-18.95-32.94-15.92-11.5,3.36-10.67,17.94,1.1,35.61"/>
    <path class="cls-1" d="M53.77,67.63S12.61,12.61,57.14,1.75c0,0-9.02,8.1-6.44,12.15S74.62,.46,88.98,7.45s6.62,23-8.47,25.4"/>
    <path class="cls-1" d="M90.59,8.34s18.27-9.35,44.39,16.05c0,0,22.83,18.77,27.43,53.18,3.97,29.68-15.52,53.21-40.06,51.08-24.54-2.13-23.46-23.93-23.46-23.93"/>
    <path class="cls-1" d="M36.43,27.33S1.75,11.87,1.75,38.56s17.34,33.12,17.34,33.12"/>
    <path class="cls-1" d="M148.92,119.47s1.34,9.34,14,7.97c11.91-1.29,9.05-38.09,9.05-38.09,0,0-.1,31.8,5.8,39.3,7.39,9.4,24.57,12.35,34.38-4.21,0,0,9.97-19.72-6.13-33.98,0,0-5.24-5.34-20.52-11.69,0,0,12.42,8.74,21.99,4.69s14.35-20.24,.74-31.84c-13.62-11.59-14.35-16.93-14.35-16.93"/>
    <path class="cls-1" d="M179.52,77.38s5.7-19.14,11.41-35.15,1.47-30.55-11.41-31.28-23,2.58-24.84,13.99c0,0-1.93,13.71,3.5,27.05"/>
    <path class="cls-1" d="M133.57,23.05s4.97-6.58,10.61-.93,10.55,6.26,2.33-8.47"/>
    <path class="cls-2" d="M149.95,65.79s-18.03-6.81-34.23,14.23c0,0,6.93-8.71,4.6-23.56,0,0,6.62,21.16,10.12,25.03,0,0-14.23-12.82-20.43-14.78,0,0,7.12-.98,15.89-.18"/>
    <path class="cls-2" d="M18.04,76.83s4.51-1.93,10.86-1.47c0,0-9.2,11.04-12.97,14.91,0,0,8.93-2.76,14.17-2.39"/>
    <path class="cls-2" d="M37.82,84.19s-17.21-7.36-7.73,14.81c0,0,2.58-5.24,11.04-5.15"/>
    <path class="cls-2" d="M24.85,93.76s6.35-3.68,14.26-3.86"/>
    <path class="cls-2" d="M30.46,118.33s5.34-8.91,3.73-18.22l13.57,21.99"/>
    <path class="cls-2" d="M30.09,113.55s8.01,2.48,17.67,0"/>
    <path class="cls-2" d="M17.48,104.25s5.98-5.7,14.49-4.6"/>
    <path class="cls-2" d="M27.24,112.72s-4.37-6.54-5.31-11.37"/>
  </g>
</svg>