<?xml version="1.0" encoding="UTF-8"?>
<svg id="_레이어_2" data-name="레이어 2" xmlns="http://www.w3.org/2000/svg" viewBox="0 0 278.68 101.61">
  <defs>
    <style>
      .cls-1 {
        fill: none;
        stroke: #231815;
        stroke-linecap: round;
        stroke-linejoin: round;
        stroke-width: 3.5px;
      }
    </style>
  </defs>
  <g id="_레이어_1-2" data-name="레이어 1">
    <path class="cls-1" d="M44.42,53.36L28.82,12.36,1.75,6.05,23.09,58.65l-9.54-1.76s11.72,7.08,8.66,19.57c-3.06,12.49-7.36,13.56-7.36,13.56l2.98,9.84h55.56s7.48-22.96-6.36-39.28c0,0-4.25-5.02-11.83-6.37,0,0,6.86,.3,11.11,1.79l-1.16-6.95-20.07-2.59-.66,6.89Z"/>
    <polyline class="cls-1" points="38.86 37.86 39.79 10.79 44.04 6.99 62.23 12.94 56.17 38.41 60.19 40.01 59.2 43.71"/>
    <path class="cls-1" d="M73.39,99.86h24.13l1.65-12.43-6.4,1.1s2.87-14.5,2.21-26.52c0,0,21.67,10.7,26.96,37.85h24.15s1.32-15.52-3.42-30.41l-5.51-.55,.22,6.95s-15-21.17-36.06-24.48c0,0,22.72,1.76,23.27-11.58,.55-13.34-20.4-32.97-56.35-29.22l-7.28,20.95,2.43,3.86,17.2,4.08h-5.19v8.38h-5.18l2.1-5.07-3.09-4.63-12.33-2.81"/>
    <path class="cls-1" d="M124.51,40.72s21.17-12.06,41.1,15.72c0,0,13.07,17.7,.41,36.55,0,0-4.75,6.86-12.32,6.86h-7.57"/>
    <path class="cls-1" d="M153.7,99.86l53.15-1.52s9.81-17.09-3.75-41.35l-4.33-.47h6.66l-.29-5.29-20.88-2.56-.54,7.11-1.9-.41s-2.15-12.21-5.07-18.55l4.74,8.16,16.26,2.76,2.1-4.25-3.53-1.6,9.32-32.53-18.41-7.61-3.64,2.65-1.59,31.43-11.69-25.72L138.7,1.75l-3.42,6.06,12.13,22.05,5.29,1.32s3.52,10.76,3.91,15.25"/>
    <path class="cls-1" d="M195.35,5.11l1.58-3.36,22.16,5.68,7.72,30.05,5.57-3.31,1.32-25.09,4.85-.83,16.32,7.17-7.77,25.2-14.39,2.48s17.26,.66,29.61,19.19c0,0,.26-3.53-.77-8.12h5.62s8.27,6.74,9.76,42.14h-19.19s-1.32-33.08-29.36-42.84c0,0,3.14,17.86,.99,31.84l2.89,.17s.08,8.52-1.65,12.65l-24.97,.26"/>
    <path class="cls-1" d="M201.2,24.86l1.96,6.61,4.38,.83v6.45l-3.17-.63v7.5l3.75,.99s-.52,9.97-1.71,17.22"/>
    <path class="cls-1" d="M95.59,40.84v7.44s4.96,.44,4.96-3.72-4.96-3.72-4.96-3.72Z"/>
    <ellipse class="cls-1" cx="138.15" cy="59.28" rx="1.9" ry="5.83" transform="translate(-12.18 58.16) rotate(-22.8)"/>
  </g>
</svg>