<?xml version="1.0" encoding="UTF-8"?>
<svg id="_레이어_2" data-name="레이어 2" xmlns="http://www.w3.org/2000/svg" viewBox="0 0 232.82 100.02">
  <defs>
    <style>
      .cls-1 {
        fill: none;
        stroke: #231815;
        stroke-linecap: round;
        stroke-linejoin: round;
        stroke-width: 3.5px;
      }
    </style>
  </defs>
  <g id="_레이어_1-2" data-name="레이어 1">
    <path class="cls-1" d="M29.07,43.18l9.83,3.43c-2.83,1.13-3.3,3.52-3.3,3.52-2.48,7.96,3,15.52,11.35,13.7s8.87-18.13-3.78-23.35-15.52-11.48-15.52-11.48l1.57,22.17-14.48-2.35-9.52,11.35v28.57l10.04-11.09,25.96,15.26,2.35-12.13c7.04,3.13,14.22-3,14.22-3l.13,18.13h19.96l-5.87-19.96,42.13,19.96h12.26l-1.7-44.48-23.87,.78c10.43,3.39,7.17,17.48,7.17,17.48l-8.09-2.22-7.43-28.18,24.39-3.39,2.22-23.87-32.48,10.04v-3.13c-6.91,4.7-11.87,.65-11.87,.65-6.52-7.3,2.48-17.35,2.48-17.35l-17.09-.52c.39,13.3-4.04,30.39-4.04,30.39-5.09-4.43-14.87-6.52-14.87-6.52,0,0-4.3-.65-4.3-4.04s3.65-3.91,3.65-3.91l-2.35-15.91L1.75,8.32l3.93,12.91s5.4,4.52,5.4,20l8.17,7.61"/>
    <path class="cls-1" d="M119.42,18.97l6.96-1.57,13.91,23.48,9.22-20.35,15.83,.35,4,47.13s-9.91-2.96-19.3,0l1.74-27.48-12.87,20.7-11.3-24,2.31,23.13-4.86,.72"/>
    <line class="cls-1" x1="110.51" y1="36.8" x2="111.24" y2="51.89"/>
    <path class="cls-1" d="M159.06,20.74l-1.73-16.56h24s-4.35,14.16,7.83,16.56,.87-12.73,.87-12.73l24,1.22,2.96,42.66"/>
    <path class="cls-1" d="M169.33,83.84l-23.13,14.43-16.3-7.3c3.53-25.74-2.14-27.13-2.14-27.13h20l.78,13.22,28.96-12.17,9.65-1.04v8.17l-17.83,11.83Z"/>
    <path class="cls-1" d="M64.68,39.31s9.1,14.61,1.11,28.7"/>
    <polyline class="cls-1" points="67.42 42.71 81.92 39.82 81.05 55.66"/>
    <line class="cls-1" x1="69.76" y1="60.18" x2="92.33" y2="68.01"/>
    <polyline class="cls-1" points="211.59 54.62 231.07 53.66 229.33 95.92 215.07 95.92 182.55 60.18 177.5 41.23 192.63 60.18 216.11 70.79"/>
    <path class="cls-1" d="M166.75,37.57l13.37,.87-2.09-14.43s10.43,13.74,21.04,1.91v19.83l-16.16-16.17"/>
    <line class="cls-1" x1="169.33" y1="61.05" x2="181.68" y2="61.05"/>
  </g>
</svg>