<?xml version="1.0" encoding="UTF-8"?>
<svg id="_레이어_2" data-name="레이어 2" xmlns="http://www.w3.org/2000/svg" viewBox="0 0 216.98 112.76">
  <defs>
    <style>
      .cls-1 {
        stroke-width: 2px;
      }

      .cls-1, .cls-2 {
        fill: none;
        stroke: #231815;
        stroke-linecap: round;
        stroke-linejoin: round;
      }

      .cls-2 {
        stroke-width: 3.5px;
      }
    </style>
  </defs>
  <g id="_레이어_1-2" data-name="레이어 1">
    <path class="cls-2" d="M198.15,83.79s-15.7-4.93-8.43-17.39c7.27-12.46,27.77,2.98,25.04,17.39-2.72,14.4-22.71,25.69-44.12,7.4-21.41-18.3,0-.65,0-.65,0,0-3.89,13.62-22.84,12.98-18.94-.65-22.91-8.95-22.91-8.95"/>
    <path class="cls-2" d="M4.16,64.46s-1.69,49.05,40.23,46.45c41.91-2.6,39.71-53.98,39.71-53.98,0,0,2.98-49.31-42.3-49.83S1.96,57.58,1.96,57.58l28.16,1.48s-10.9-10.43-12.59-19.9c-1.69-9.47,2.21,39.71,2.21,39.71"/>
    <line class="cls-2" x1="48.7" y1="8.47" x2="50.89" y2="110.06"/>
    <line class="cls-2" x1="20.64" y1="72.37" x2="81.89" y2="73.41"/>
    <path class="cls-2" d="M84.13,50.41l28.57,.58,1.36,25.69-15.57-1.17s11.87,5.26,9.34,16.84c-2.53,11.58-25.21,19.27-31.04-.58"/>
    <path class="cls-2" d="M214.11,72.89s5.64-49.64-8.37-65.79c0,0-24.14-7.59-42.04,0,0,0-9.54-4.08-31.53-2.53-21.99,1.56-25.93,4.23-25.93,4.23"/>
    <path class="cls-2" d="M106.24,96.12s2.12,6.74,11.59,6.74,8.69-19.27,8.05-25.66c-.65-6.39-4.15-37.27-4.15-37.27,0,0-1.69,35.81,21.28,35.16,22.97-.65,19.07-30.75,13.49-36.07"/>
    <path class="cls-2" d="M163.7,7.1s6.86,16.09,6.25,37.11,1.99,26.73,1.99,26.73l-11.67-1.56s16.86,6.23,10.37,21.15"/>
    <path class="cls-2" d="M168.5,24.66c1.36-.03,25.5-.55,25.5-.55l-22.84,14.92"/>
    <path class="cls-2" d="M66.96,14.7s3.57-9.73,14.93-12.26c11.35-2.53,24.59,1.95,27.51,13.62,2.92,11.68,1.36,30.51-8.57,34.69"/>
    <ellipse class="cls-1" cx="91.4" cy="24.92" rx="4.84" ry="4.17"/>
    <ellipse class="cls-1" cx="91.92" cy="34.37" rx="4.32" ry="3.94"/>
  </g>
</svg>