<?xml version="1.0" encoding="UTF-8"?>
<svg id="_레이어_2" data-name="레이어 2" xmlns="http://www.w3.org/2000/svg" viewBox="0 0 267.78 120.52">
  <defs>
    <style>
      .cls-1 {
        fill: none;
        stroke: #231815;
        stroke-linecap: round;
        stroke-linejoin: round;
        stroke-width: 3.5px;
      }
    </style>
  </defs>
  <g id="_레이어_1-2" data-name="레이어 1">
    <path class="cls-1" d="M27.84,80.84c-7.99-1.84-8.12,5.66-8.12,5.66-.86,10.45,15.86,25.09,13.16,15.49-2.71-9.59-7.87-51.28-7.87-51.28l-5.29,1.72-6.89-25.7,33.69,7.26-2.95,15.37-6.15-1.48,12.17,61.12s-2.95,12.17-15.99,9.35S1.03,104.69,1.77,80.96s21.01-21.52,23.91-18.94"/>
    <path class="cls-1" d="M47.29,97.35l13.69,10.6,2.4-.55s-3.14-54.91,25.45-80.67"/>
    <path class="cls-1" d="M39.62,58.84s6.15-16.65,14.36-16.1,7.65,13.83,7.65,13.83l3.78-18.17-9.13,3.97"/>
    <path class="cls-1" d="M42.81,31.86s4.06-4.52-2.77-6.55l-2.21-5.53,19.74,3.69-1.66,4.52,9.5-5.53-1.94-11.99L98.89,1.98l-1.57,8.67s12.91,4.61,25.64,.65l-4.73,25.27-4.3-2.21,5.53,38.4,6.76,6v15c-17.09-7.5-31.73,2.71-31.73,2.71l1.97,10.7c-6.89-13.9-26.56-14.63-26.56-14.63l-2.34-17.09h5.04s3.56-15.38,.43-25.77"/>
    <path class="cls-1" d="M93.88,94.98s0-18.38,1.23-27.64l7.13-.52s3.32-15.49,1.35-25.7c0,0-8.24,6.52-8.85,12.91s-.86-.37-.86-.37c0,0-7.01-8.48-13.65-13.4,0,0,6.76,22.38,7.13,38.49l5.66,4.8"/>
    <path class="cls-1" d="M122.96,11.3s10.46-13.22,22.48-8.55c12.02,4.67,1.19,18.2,1.19,18.2,0,0,16.6,9.22,32.83,4.3,0,0-5.78,7.13-6.64,20.54l-19.43-10.34,5.41,15.5s10.94-11.56,23.86-6.76c12.91,4.8,15.74,14.88,12.54,30.5s-23.86,38.74-40.46,25.33"/>
    <path class="cls-1" d="M146.63,20.95s-5.16,9.59-8.24,23.36l-6.03,.74,1.23-15s-15,17.22,3.07,16.6c0,0-12.17,11.31-5.66,28.16s19.43-6.15,13.4-21.03l-1.84-4.55,2.86-1.51"/>
    <path class="cls-1" d="M139.74,38.94s9.1,9.07,11.19,26.9l6.76,1.51s10.77,35.14-18.66,43.26c0,0-17.74,1.84-24.38-18.81"/>
    <path class="cls-1" d="M182.66,44.19s-1.69-17.4,12.24-21.27c13.93-3.87,29.33,1.84,29.79,24.53s-21.04,28.04-28.28,22.96"/>
    <path class="cls-1" d="M207.07,58.89s-10.24,2.49-11.44-9.41c-1.2-11.9,10.88-14.48,15.77-9.68s3.87,16.32-4.33,19.09Z"/>
    <path class="cls-1" d="M210.27,71.18l-1.23,3.26-3.57,1.11-7.07,26.25s10.64-12.36,28.59-11.87l.74-16.97-4.67,.8s-.18-13.34,3.63-25.45l7.01,23.87-3.44-.93-.61,16.11s16.6,1.35,26.93,14.45l-3.69-22.07-8.48-4.94s-.86-23.1,5.66-35.02h4.3l11.68-15s-14.88-3.44-25.21,1.48c0,0-3.44,9.35-3.57,14.51l2.95-.86s-4.67,11.56-6.03,25.33c0,0-2.09-15.49-.49-28.28l3.2-.61,6.48-16.74c.5-1.3-.36-2.72-1.75-2.88-4.23-.49-13.47-.11-27.27,8.21"/>
    <path class="cls-1" d="M160.77,64.79s5.6-10.51,14.88-7.87,8.24,17.52,.98,25.95c-7.26,8.42-11.97,8.09-12.73-3.5s3.88-21.38,3.88-21.38"/>
  </g>
</svg>