<?xml version="1.0" encoding="UTF-8"?>
<svg id="_레이어_2" data-name="레이어 2" xmlns="http://www.w3.org/2000/svg" viewBox="0 0 206.36 133.4">
  <defs>
    <style>
      .cls-1 {
        stroke-width: 2px;
      }

      .cls-1, .cls-2, .cls-3 {
        fill: none;
        stroke: #231815;
        stroke-linecap: round;
        stroke-linejoin: round;
      }

      .cls-2 {
        stroke-width: 3.5px;
      }

      .cls-3 {
        stroke-width: 3px;
      }
    </style>
  </defs>
  <g id="_레이어_1-2" data-name="레이어 1">
    <path class="cls-2" d="M42.83,49.08c0-16.41-3.66-41.19-18.18-40.25-11.59,.75-11.44,22.05-10.91,30.61,.12,1.98-1.31,3.71-3.28,3.95l-8.71,1.09,4.92,20.84s6.14-4.27,11.33-1.89c0,0-26.6,12.61-5.98,45.18,20.62,32.58,45.32,27.54,44.38-2.99-.94-30.53-20.77-44.69-20.77-44.69l18.89,.31s-6.55,4.43-7.91,10.8"/>
    <path class="cls-2" d="M35.63,14.92s3.15-6.11,11.02-6.11,23.45,8.52,22.5,47.87c0,0,15.89,23.85,9.76,54.77-6.14,30.92-25.43,18.41-26.8,13.14"/>
    <path class="cls-1" d="M31.69,50.38s13.27-2.2,24.73,1.26"/>
    <path class="cls-2" d="M61.73,18.8s10.61-16.93,19.22-6.54"/>
    <path class="cls-2" d="M80.31,60.29s-13.06-51.78,15.11-54.29,13.22,58.51,26.12,57.43l1.1,18.11s-6.92-.94-9.6,14.48c-2.68,15.42-8.34,33.52-20.93,33.84-12.59,.31-16.05-8.81-16.05-8.81"/>
    <path class="cls-3" d="M68.99,73.83s.47-13.85,14.64-13.69c14.16,.16,13.61,11.49,13.61,11.49,0,0,1.5-11.96-2.12-22.82"/>
    <path class="cls-2" d="M116.16,55.61s10.9-3.18,11.21-8.06S125.96,1.75,140.28,1.75s14.79,15.74,12.12,37.61c-2.68,21.88-8.18,21.95-11.65,23.29-1.84,.71-2.83,11.49-2.83,31.79"/>
    <path class="cls-2" d="M106.38,118.45s4.78,14.3,25.91,13.13,29.15-13.69,31.51-20.65,6.26-41.09-10.14-43.55c-13.68-2.06-15.47,11.09-15.47,11.09"/>
    <path class="cls-2" d="M152.74,12.48s23.44-19.02,40.34,6.31c16.45,24.66,14.68,75.21-1.34,95.16-18.57,23.13-39,11.25-39,11.25"/>
    <path class="cls-2" d="M158.57,69.41c.23-.79,.5-16.75,.6-22.71,.02-1.22,1.04-2.17,2.26-2.1l18.28,.94c1.48,.08,2.73,1.14,3.05,2.59l4.98,22.98c.45,2.07-1.07,4.04-3.18,4.14l-21.14,1.02"/>
  </g>
</svg>