<?xml version="1.0" encoding="UTF-8"?>
<svg id="_레이어_2" data-name="레이어 2" xmlns="http://www.w3.org/2000/svg" viewBox="0 0 209.23 111.55">
  <defs>
    <style>
      .cls-1 {
        stroke-width: 2px;
      }

      .cls-1, .cls-2 {
        fill: none;
        stroke: #231815;
        stroke-linecap: round;
        stroke-linejoin: round;
      }

      .cls-2 {
        stroke-width: 3.5px;
      }

      .cls-3 {
        fill: #231815;
      }
    </style>
  </defs>
  <g id="_레이어_1-2" data-name="레이어 1">
    <path class="cls-2" d="M52.35,1.75S1.42,4.09,1.75,48.51c.33,44.42,56.94,58.28,56.94,58.28l12.36-54.44s-30.06,5.34-47.26-3.01c0,0,15.03-3.34,32.9-.83,0,0,1-29.39-4.34-46.76Z"/>
    <path class="cls-2" d="M55.41,17.48s7.96-22.24,36.18-11.72c0,0,24.21,10.44,11.02,36.07,0,0-7.35,14.19-24.55,14.03,0,0,17.65,1.35,33.11-1.48,2.05-.38,3.65,1.76,2.69,3.62-4.93,9.61-17.06,31.81-31.25,46.99-1.52,1.63-3.98,1.97-5.86,.78-5.08-3.19-14.09-10.44-13.02-21.19"/>
    <path class="cls-2" d="M104.6,18.44l34.45-13.71c1.22-.48,2.56,.36,2.64,1.67l2.6,38.78c.16,2.4-2.33,4.11-4.49,3.06-6.09-2.98-16.1-6.18-19.5,2.77,0,0-2.79,12.46,4.95,6.68s17.14-13.03,26.16-3.42c7.85,8.35,15.47,28.69-11.13,43.28,0,0-15.47,8.35-31.5,12.13-2.64,.62-5.24-1.16-5.43-3.86l-.62-28.06"/>
    <path class="cls-2" d="M99.5,46.18s.5,5.27,1.5,9.51"/>
    <path class="cls-2" d="M108.65,67.71s3.93,9.36,15.17,2.23c11.24-7.12,22.04-10.69,22.82,.22,.78,10.91-20.6,15.03-30.73,3.23"/>
    <path class="cls-2" d="M142.03,11.31l51.85,1.18c2.58,.06,4.48,2.43,3.98,4.96-1.53,7.81-3.78,24.36-.71,44.29,.31,2.02-1.22,3.85-3.26,3.91l-25.32,.72,37.35,13.09c1.92,.67,2.1,3.31,.3,4.24l-46.22,23.97c-1.48,.77-3.3,.06-3.87-1.5l-5.43-14.75"/>
    <ellipse class="cls-2" cx="80.22" cy="33.25" rx="15.98" ry="4.17" transform="translate(26.2 101.24) rotate(-74.05)"/>
    <path class="cls-1" d="M163.01,41.66l-8.35-20.54s6.74-3.06,8.96,1.56-4.12,8.46-6.62,9.8"/>
    <path class="cls-1" d="M175.75,39.6s-2.39-13.9-3.51-19.47c0,0,6.57,13.8,9.63,13.3s4.23-14.58,4.23-14.58c0,0-1.22,13.36,1.5,22.82"/>
    <ellipse class="cls-1" cx="168.47" cy="31.28" rx="2.94" ry="8.25" transform="translate(-2.73 24.14) rotate(-8.13)"/>
    <path class="cls-1" d="M164.62,46.28s4.17-3.56,10.69-2.28"/>
    <circle class="cls-3" cx="190.95" cy="32.82" r="1.92"/>
  </g>
</svg>