<?xml version="1.0" encoding="UTF-8"?>
<svg id="_레이어_2" data-name="레이어 2" xmlns="http://www.w3.org/2000/svg" viewBox="0 0 242.51 111.41">
  <defs>
    <style>
      .cls-1 {
        stroke-width: 3.5px;
      }

      .cls-1, .cls-2 {
        fill: none;
        stroke: #231815;
        stroke-linecap: round;
        stroke-linejoin: round;
      }

      .cls-2 {
        stroke-width: 1.5px;
      }
    </style>
  </defs>
  <g id="_레이어_1-2" data-name="레이어 1">
    <path class="cls-1" d="M36.05,45.06c33.07-27.15,58.77,19,49.83,33.41-8.94,14.41-21.34,4.36-21.34,4.36,7.49,14.64-14.08,14.08-22.91,5.92s-7.93-17.43-5.81-17.43,2.91,5.59-3.13,8.04S-.15,78.02,1.86,54.89c2.01-23.13,19.67-19.78,19.67-19.78,0,0-6.59-4.47-9.83-7.82l3.41-.34S17.5-.3,47.84,1.87c30.34,2.18,32.01,31.34,24.47,34.53,0,0-3.47,1.96-8.31,1.45"/>
    <path class="cls-1" d="M110.16,97.72s12.18,12.01,26.93-1.65c0,0,9.47-8.04,.34-31.17"/>
    <path class="cls-1" d="M135.85,97.16s8.25,12.94,24.11,4.11c15.87-8.83,8.55-50.11-3.69-60.34-12.24-10.22-24.1-6.2-24.1-6.2"/>
    <path class="cls-1" d="M145.72,34.47s11.56,.08,9.89-8.72c-1.68-8.8-11.15-27.15-37.38-15.67"/>
    <path class="cls-1" d="M61.83,5.51s27.97-11.62,27.41,17.1"/>
    <path class="cls-1" d="M85.49,8.19s9.33-9.61,18.04-2.23c0,0,4.47,3.24,0,9.39s-1.5,4.58,1.99,0,9.19-12.74,18.01,1.68c0,0,7.24,10.75,8.64,24.75"/>
    <path class="cls-1" d="M95.49,19.47s8.93,11.01,11.72,22.29h-15.97c12.4,7.54,19.61,23.05,21.87,36.2,2.26,13.16-1.03,21.96-8.91,22.49-7.88,.54-6.26-17.58-6.26-17.58,1.51,15.31-6.48,16.82-6.48,16.82-16.87,4.58-25.2-13.02-25.2-13.02"/>
    <path class="cls-1" d="M155.61,25.76s24.64-23.72,53.3-9.47c28.66,14.25,38.88,61.34,26.98,80.62s-43.07,13.5-50.28,3.57-2.18-19.15-2.18-19.15c0,0-1.53,20.28-16.18,10.14"/>
    <g>
      <path class="cls-2" d="M189.34,33.8c-.6-.13-1.15-.74-1.17-1.36-.07-1.83-.14-7.47-.14-7.47-.03-.74,.71-1.27,1.4-1l4.86,2.27c.69,.32,.53,1.34-.22,1.44l-5.92,.78c-.44,.06-.55,.65-.15,.86l5.98,3.22c.4,.2,.33,.83-.08,1-1.15,.48-2.53,.67-4.56,.25Z"/>
      <path class="cls-2" d="M201.67,35.84c0-.17,1.34-10.34,1.34-10.34"/>
      <polyline class="cls-2" points="209.32 27.13 198.71 24.78 198.15 33.94"/>
      <path class="cls-2" d="M211.61,31.88s.17-2.82-2.63-2.51-4.66,3.21-3.58,6.48,5.78,3.77,6.68,.28"/>
      <path class="cls-2" d="M215.68,32.25s-3.14,5.28-1.01,9.76"/>
      <path class="cls-2" d="M220.66,35.02s-.8,8.55,0,11.98"/>
      <path class="cls-2" d="M223.89,41.81s-8.8-3.94-11.02-4.67"/>
      <path class="cls-2" d="M190.62,36.36s-3.83,7.21,.62,8.84,5.62-3.85,6.71-8.07"/>
      <path class="cls-2" d="M211.73,42.94s-4.5-4.94-8.24-.45,.42,8.21,3.74,8.07,4.11-2.93,2.37-4.83-4.41-1.84-5.08-.81"/>
      <path class="cls-2" d="M209.85,49.49c0,2.57,1.76,4.65,3.94,4.65s4.16-2.08,4.16-4.65-1.68-4.65-3.85-4.65-4.25,2.08-4.25,4.65Z"/>
      <path class="cls-2" d="M221,47l-4.6,9.32c-.24,.5,.33,1,.8,.7l9.15-6c.78-.5,1.77,.2,1.57,1.1l-2.61,11.89"/>
      <path class="cls-2" d="M183.71,61c0-.13-3.1-13.24,5.07-13.32s3.9,9.09,1.42,8.04-4.69-5.74-5.28-8.34"/>
      <path class="cls-2" d="M197.45,61.54s.71-4.04-1.05-5.74-3.65-.82-4.13,1.36,.7,3.72,1.84,3.94c1.86,.36,5.3-.61,5.64-4.02,.28-2.86-.88-6.39-4.36-7.31"/>
      <path class="cls-2" d="M201.39,50.93s2.32,4.58,1.96,9.47c0,0,1.01-5,4.47-5.31s3.21,6.4,1.28,8.74-4.58,3.88-7.09,1.9c-2.04-1.61-1.15-5.45-1.15-5.45"/>
      <line class="cls-2" x1="213.5" y1="60.45" x2="220.12" y2="64.39"/>
      <line class="cls-2" x1="214.8" y1="70.34" x2="217.38" y2="62.76"/>
      <path class="cls-2" d="M217.65,67.57s6.37,4.4,6.49,4.48"/>
      <line class="cls-2" x1="223.89" y1="67.37" x2="221.63" y2="77.76"/>
      <path class="cls-2" d="M218.57,72.06s-.04-4.02,2.1-8.67"/>
      <line class="cls-2" x1="226.78" y1="72.56" x2="224.14" y2="79.64"/>
      <path class="cls-2" d="M232.9,82.37s.52-4.55-5.81-3.71c0,0-1.07,.16-.64,.99,.32,.62,4.75,6.12,3.17,7.92s-4.72,.81-4.76-4.45"/>
      <path class="cls-2" d="M190.33,67.72s.07-3.67,3.22-1.93,4.66,3.52,4.24,4.55-7.43-.03-7.79,1.48,5.22,6.42,5.22,6.42"/>
      <line class="cls-2" x1="190.3" y1="77.52" x2="192.17" y2="65.33"/>
      <path class="cls-2" d="M197.03,70.34s5.57,5.45,7.58,4.53-1.13-7.63-4.57-5.99-4.73,8.88,.29,10.43c0,0,2.68,.92,2.97-2.81"/>
      <path class="cls-2" d="M203.07,80.9s3.31-3.73,3.06-9.68c0,0,1.01,11.52,3.39,11.15s1.26-9.22,1.26-9.22l8.63,10.32"/>
      <line class="cls-2" x1="212.41" y1="92.46" x2="215.04" y2="78.25"/>
      <line class="cls-2" x1="194.46" y1="84.39" x2="194.8" y2="98.13"/>
      <path class="cls-2" d="M197.26,88.97s-1.34,11.12,2.63,11.12,7.65-6.59,7.1-12.96c-.56-6.37-7.99-5.7-7.77,.61,.22,6.31,6.37,12.35,6.37,12.35"/>
    </g>
  </g>
</svg>