<?xml version="1.0" encoding="UTF-8"?>
<svg id="_레이어_2" data-name="레이어 2" xmlns="http://www.w3.org/2000/svg" viewBox="0 0 231.69 116.21">
  <defs>
    <style>
      .cls-1 {
        stroke-width: 2px;
      }

      .cls-1, .cls-2 {
        fill: none;
        stroke: #231815;
        stroke-linecap: round;
        stroke-linejoin: round;
      }

      .cls-2 {
        stroke-width: 3.5px;
      }
    </style>
  </defs>
  <g id="_레이어_1-2" data-name="레이어 1">
    <path class="cls-2" d="M6.61,65.27S-5.88,33.02,26.77,19.93c32.65-13.1,53.81,17.33,51.99,43.33-1.81,26-31.24,51.39-50.18,46.95S-4.13,92.67,4.26,69.9c8.39-22.77,30.76-10.28,32.98-.6s-7.05,4.03-13.5-18.34"/>
    <line class="cls-2" x1="40.31" y1="49.55" x2="45.31" y2="68.29"/>
    <path class="cls-2" d="M56.85,20.39s-2.68-7.12,8.8-10.34c11.49-3.22,22.77-6.49,23.38,6.73s0,52.72,0,52.72"/>
    <path class="cls-2" d="M59.95,98.27s19.81,28.06,26.87-1.56c0,0,4.63,27.97,18.34,13.58,10-10.51,19.26-23.33,23.52-29.49,1.45-2.09,1.17-4.91-.66-6.69l-15.98-15.55c-1.56-1.52-.95-4.13,1.11-4.83,6.02-2.03,15.37-6.89,13.57-17.28-2.62-15.11-19.61-24.59-37.42-16.73"/>
    <path class="cls-2" d="M117.02,21.4s17.83-18.54,36.1-6.18c18.27,12.36,12.36,41.38,0,40.57-12.36-.81-16.02-1.11-21.56,2.12"/>
    <path class="cls-2" d="M115.03,99s5.58,19.13,30.7,14.83c25.12-4.3,23.78-33.72,23.78-33.72,0,0-.5-20.48-18.92-24.48"/>
    <line class="cls-2" x1="142.27" y1="30" x2="136.19" y2="46.32"/>
    <polyline class="cls-2" points="158.05 19.57 160.98 10.97 196.64 10.97 183.95 36.45"/>
    <path class="cls-2" d="M164.71,100.55s29.52,25.81,55.51,0c26-25.81-4.03-81.55-44.33-60.47"/>
    <path class="cls-1" d="M181.73,62.38s1.81-15.11-5.91-4.47-2.08,12.06,1.88,10.85,7.46-.07,6.31,5.58c-1.14,5.64-.6,22-10.95-.62"/>
    <ellipse class="cls-1" cx="195.79" cy="68.7" rx="3.32" ry="9.83" transform="translate(-5.78 19.47) rotate(-5.61)"/>
    <path class="cls-1" d="M191.47,61.64s-4.84-.47-7.86,0"/>
    <path class="cls-1" d="M185.16,61.64s-2.89,22.47,7.79,12.07"/>
    <line class="cls-1" x1="185.16" y1="67.82" x2="191.07" y2="67.08"/>
    <path class="cls-1" d="M200.21,61.1s-.27,19.61,2.82,18.47,2.89-7.59,1.34-14.64"/>
    <path class="cls-1" d="M205.98,56.33s2.96,13.4,1.38,25.97c-.27,2.13,1.4,4.02,3.53,4.31l6.31,1.03c1.16,.15,2.04-1.01,1.56-2.07-1.86-4.17-5.58-13.7-3.85-18.12"/>
    <path class="cls-1" d="M187.22,83.96s7.46-4.03,17.43,.35"/>
    <path class="cls-1" d="M191.81,87.66s4.82-3.15,11.02,0"/>
    <ellipse class="cls-1" cx="28.26" cy="7.18" rx="12.41" ry="4.79" transform="translate(-.76 10.04) rotate(-19.9)"/>
  </g>
</svg>