<?xml version="1.0" encoding="UTF-8"?>
<svg id="_레이어_2" data-name="레이어 2" xmlns="http://www.w3.org/2000/svg" viewBox="0 0 219.35 123.48">
  <defs>
    <style>
      .cls-1 {
        stroke-width: 2px;
      }

      .cls-1, .cls-2 {
        fill: none;
        stroke: #231815;
        stroke-linecap: round;
        stroke-linejoin: round;
      }

      .cls-2 {
        stroke-width: 3.5px;
      }
    </style>
  </defs>
  <g id="_레이어_1-2" data-name="레이어 1">
    <path class="cls-2" d="M50.13,6.24S26.22,55,1.75,81.15c0,0,29.7-7.1,45.21-14.01,0,0-27.84,4.11-21.02,27.09,6.82,22.98,34.28,12.33,30.73,0s-5.42-28.02-5.42-28.02c0,0,.93,20.18,14.01,19.05s17-15.64,16.44-29.21-14.59-20.88-21.69-12.1c0,0-3.92,3.43-1.68,17.37,0,0-2.17-29.82-8.2-55.09Z"/>
    <path class="cls-2" d="M53.76,24.34S57.85,.04,80.12,3.11c22.7,3.13,24.72,43.01,1.64,51.28,0,0,26.94-6.87,31.01,20.6s-20.04,40.35-40.91,31.1c0,0-13.03-6.16-16.95-18.84"/>
    <path class="cls-2" d="M93.2,11.28s.65-9.34,6.72-9.53c6.07-.19,12.14,5.23,12.7,12.98,0,0,3.74-11.4,11.21-11.4s8.83,14.76,11.35,45.44c0,0-5.74-34.75,5.6-41.05,11.35-6.3,20.04,1.54,20.18,11.49,0,0,.28,11.21,0,25.5,0,0,1.75-14.64,13.8-12.75s17.86,13.24,6.94,26.83"/>
    <path class="cls-2" d="M106.01,100.59s6.23,19.65,22.79,14.05,20.11-41.61,12.71-55.02c0,0-7.73-13.84-20.2-8.03"/>
    <path class="cls-2" d="M139.85,103.59s9.91,21.05,21.11,5.47,10.79-28.61-1.4-36.04-20.5-14.48-10.41-19.34c10.09-4.86,18.03-8.31,14.1,4.39-3.92,12.7-2.29,15.23-2.29,15.23,0,0,5.09-14.76,25.73-14.01,20.64,.75,33.25,17.93,30.54,34.93s-14.1,26.71-25.87,27.46c-11.77,.75-23.96-9.78-25.85-18.54"/>
    <line class="cls-2" x1="77.88" y1="21.74" x2="80.68" y2="38.42"/>
    <line class="cls-2" x1="90.49" y1="68.54" x2="92.03" y2="89.14"/>
    <line class="cls-2" x1="41.75" y1="44.58" x2="44.11" y2="57.89"/>
    <line class="cls-2" x1="112.62" y1="14.74" x2="117.25" y2="70.22"/>
    <path class="cls-1" d="M169.42,67.96l6.3,17.09,10.06-1.33s-5.09-4.55-4.25-6.09"/>
    <path class="cls-1" d="M189.74,86.52l-2.45-17.51,8.34,.35s-2.66,4.62-.7,7.92"/>
    <line class="cls-1" x1="185.96" y1="81.75" x2="195.62" y2="81.75"/>
    <line class="cls-1" x1="198.85" y1="75.67" x2="200.32" y2="94.65"/>
    <path class="cls-1" d="M205.64,83.79l-11.35,4.9,13.48,.43c.56,.02,.81,.72,.39,1.08-2.68,2.28-7.72,7.94,.99,12.84,0,0-1.54-2.94-.21-6.73"/>
  </g>
</svg>