<?xml version="1.0" encoding="UTF-8"?>
<svg id="_레이어_2" data-name="레이어 2" xmlns="http://www.w3.org/2000/svg" viewBox="0 0 748.88 621">
  <defs>
    <style>
      .cls-1 {
        fill: #fff;
      }

      .cls-2 {
        fill: lime;
      }
    </style>
  </defs>
  <g id="_레이어_1-2" data-name="레이어 1">
    <polygon class="cls-1" points="113.67 0 57.09 0 28.8 49 57.09 98 113.67 98 141.96 49 113.67 0"/>
    <polygon class="cls-1" points="38.97 80 12.99 80 0 102.5 12.99 125 38.97 125 51.96 102.5 38.97 80"/>
    <polygon class="cls-1" points="93.15 175 73.52 175 63.7 192 73.52 209 93.15 209 102.96 192 93.15 175"/>
    <polygon class="cls-1" points="95.06 105 59.27 105 41.37 136 59.27 167 95.06 167 112.96 136 95.06 105"/>
    <polygon class="cls-1" points="207.31 214 155.35 214 129.37 259 155.35 304 207.31 304 233.29 259 207.31 214"/>
    <polygon class="cls-1" points="207.31 312 155.35 312 129.37 357 155.35 402 207.31 402 233.29 357 207.31 312"/>
    <polygon class="cls-1" points="128.24 273 90.14 273 71.08 306 90.14 339 128.24 339 147.29 306 128.24 273"/>
    <polygon class="cls-1" points="132.28 379 102.26 379 87.25 405 102.26 431 132.28 431 147.29 405 132.28 379"/>
    <polygon class="cls-1" points="185.28 411 155.26 411 140.25 437 155.26 463 185.28 463 200.29 437 185.28 411"/>
    <polygon class="cls-1" points="355.94 136 319.24 136 300.88 167.79 319.24 199.57 355.94 199.57 374.29 167.79 355.94 136"/>
    <polygon class="cls-1" points="436.94 269 400.24 269 381.88 300.79 400.24 332.57 436.94 332.57 455.29 300.79 436.94 269"/>
    <polygon class="cls-1" points="621.69 211.45 594.49 211.45 580.88 235.01 594.49 258.57 621.69 258.57 635.29 235.01 621.69 211.45"/>
    <polygon class="cls-1" points="659.69 254.45 632.49 254.45 618.88 278.01 632.49 301.57 659.69 301.57 673.29 278.01 659.69 254.45"/>
    <polygon class="cls-1" points="455.92 73 425.9 73 410.88 99 425.9 125 455.92 125 470.93 99 455.92 73"/>
    <polygon class="cls-1" points="477.94 1 441.24 1 422.88 32.79 441.24 64.57 477.94 64.57 496.29 32.79 477.94 1"/>
    <polygon class="cls-1" points="130.44 438 88.74 438 67.88 474.12 88.74 510.23 130.44 510.23 151.29 474.12 130.44 438"/>
    <polygon class="cls-1" points="199.44 480 157.74 480 136.88 516.12 157.74 552.23 199.44 552.23 220.29 516.12 199.44 480"/>
    <polygon class="cls-1" points="128.43 519 70.69 519 41.82 569 70.69 619 128.43 619 157.29 569 128.43 519"/>
    <polygon class="cls-1" points="204.67 55 148.09 55 119.8 104 148.09 153 204.67 153 232.96 104 204.67 55"/>
    <polygon class="cls-1" points="383.36 0 308.32 0 270.8 64.99 308.32 129.98 383.36 129.98 420.88 64.99 383.36 0"/>
    <polygon class="cls-2" points="536.6 175 469.63 175 436.14 233 469.63 291 536.6 291 570.09 233 536.6 175"/>
    <polygon class="cls-1" points="716.72 30 652.4 30 620.24 85.71 652.4 141.41 716.72 141.41 748.88 85.71 716.72 30"/>
    <polygon class="cls-1" points="702.15 151 650.76 151 625.07 195.5 650.76 240 702.15 240 727.84 195.5 702.15 151"/>
    <polygon class="cls-1" points="616.67 100 565.87 100 540.46 144 565.87 188 616.67 188 642.08 144 616.67 100"/>
    <polygon class="cls-1" points="608.11 280 556.15 280 530.17 325 556.15 370 608.11 370 634.09 325 608.11 280"/>
    <polygon class="cls-1" points="619.49 515 558.29 515 527.69 568 558.29 621 619.49 621 650.09 568 619.49 515"/>
    <polygon class="cls-1" points="690.71 337 642.35 337 618.18 378.88 642.35 420.75 690.71 420.75 714.88 378.88 690.71 337"/>
    <polygon class="cls-1" points="566.71 418 516.35 418 491.18 461.61 516.35 505.22 566.71 505.22 591.88 461.61 566.71 418"/>
    <polygon class="cls-1" points="615.79 392 589.19 392 575.88 415.04 589.19 438.08 615.79 438.08 629.09 415.04 615.79 392"/>
    <polygon class="cls-1" points="686.5 504 655.32 504 639.74 531 655.32 558 686.5 558 702.09 531 686.5 504"/>
  </g>
</svg>